<svg width="24" height="24" viewBox="0 0 24 24" xmlns="http://www.w3.org/2000/svg">
<path fill-rule="evenodd" clip-rule="evenodd" d="M5.70711 4.70711L3.70711 6.70711C3.31658 7.09763 2.68342 7.09763 2.29289 6.70711C1.90237 6.31658 1.90237 5.68342 2.29289 5.29289L4.29289 3.29289C4.68342 2.90237 5.31658 2.90237 5.70711 3.29289C6.09763 3.68342 6.09763 4.31658 5.70711 4.70711ZM5 13C5 9.13401 8.13401 6 12 6C15.866 6 19 9.13401 19 13C19 16.866 15.866 20 12 20C8.13401 20 5 16.866 5 13ZM12 4C7.02944 4 3 8.02944 3 13C3 17.9706 7.02944 22 12 22C16.9706 22 21 17.9706 21 13C21 8.02944 16.9706 4 12 4ZM13 9C13 8.44772 12.5523 8 12 8C11.4477 8 11 8.44772 11 9V14C11 14.5523 11.4477 15 12 15H15C15.5523 15 16 14.5523 16 14C16 13.4477 15.5523 13 15 13H13V9ZM19.7071 3.29289C19.3166 2.90237 18.6834 2.90237 18.2929 3.29289C17.9024 3.68342 17.9024 4.31658 18.2929 4.70711L20.2929 6.70711C20.6834 7.09763 21.3166 7.09763 21.7071 6.70711C22.0976 6.31658 22.0976 5.68342 21.7071 5.29289L19.7071 3.29289Z" />
</svg>
