<svg width="24" height="24" viewBox="0 0 24 24" xmlns="http://www.w3.org/2000/svg">
<path fill-rule="evenodd" clip-rule="evenodd" d="M7.70711 2.69734C8.09763 2.30682 8.09763 1.67365 7.70711 1.28313C7.31658 0.892603 6.68342 0.892603 6.29289 1.28313L2.29289 5.28313C2.0964 5.47962 1.99877 5.73755 2.00001 5.99509C2 5.99672 2 5.99836 2 6C2 6.31854 2.14894 6.6023 2.38098 6.78543L6.29289 10.6973C6.68342 11.0879 7.31658 11.0879 7.70711 10.6973C8.09763 10.3068 8.09763 9.67365 7.70711 9.28313L5.42398 7H13C13.7879 7 14.5681 7.15519 15.2961 7.45672C16.0241 7.75825 16.6855 8.20021 17.2426 8.75736C17.7998 9.31451 18.2418 9.97595 18.5433 10.7039C18.8448 11.4319 19 12.2121 19 13C19 13.7879 18.8448 14.5681 18.5433 15.2961C18.2418 16.0241 17.7998 16.6855 17.2426 17.2426C16.6855 17.7998 16.0241 18.2417 15.2961 18.5433C14.5681 18.8448 13.7879 19 13 19H5C4.44772 19 4 19.4477 4 20C4 20.5523 4.44772 21 5 21H13C14.0506 21 15.0909 20.7931 16.0615 20.391C17.0321 19.989 17.914 19.3997 18.6569 18.6569C19.3997 17.914 19.989 17.0321 20.391 16.0615C20.7931 15.0909 21 14.0506 21 13C21 11.9494 20.7931 10.9091 20.391 9.93853C19.989 8.96793 19.3997 8.08601 18.6569 7.34315C17.914 6.60028 17.0321 6.011 16.0615 5.60896C15.0909 5.20693 14.0506 5 13 5H5.40445L7.70711 2.69734Z" />
</svg>
