<svg width="24" height="24" viewBox="0 0 24 24" xmlns="http://www.w3.org/2000/svg">
<path fill-rule="evenodd" clip-rule="evenodd" d="M16.7071 1.28313C16.3166 0.892603 15.6834 0.892603 15.2929 1.28313C14.9024 1.67365 14.9024 2.30682 15.2929 2.69734L17.5956 5H10C8.94943 5 7.90914 5.20693 6.93853 5.60896C5.96793 6.011 5.08601 6.60028 4.34315 7.34315C3.60028 8.08601 3.011 8.96793 2.60896 9.93853C2.20693 10.9091 2 11.9494 2 13C2 14.0506 2.20693 15.0909 2.60896 16.0615C3.011 17.0321 3.60028 17.914 4.34315 18.6569C5.08601 19.3997 5.96793 19.989 6.93853 20.391C7.90914 20.7931 8.94943 21 10 21H18C18.5523 21 19 20.5523 19 20C19 19.4477 18.5523 19 18 19H10C9.21207 19 8.43185 18.8448 7.7039 18.5433C6.97595 18.2417 6.31451 17.7998 5.75736 17.2426C5.20021 16.6855 4.75825 16.0241 4.45672 15.2961C4.15519 14.5681 4 13.7879 4 13C4 12.2121 4.15519 11.4319 4.45672 10.7039C4.75825 9.97595 5.20021 9.31451 5.75736 8.75736C6.31451 8.20021 6.97595 7.75825 7.7039 7.45672C8.43185 7.15519 9.21207 7 10 7H17.576L15.2929 9.28313C14.9024 9.67365 14.9024 10.3068 15.2929 10.6973C15.6834 11.0879 16.3166 11.0879 16.7071 10.6973L20.619 6.78542C20.8511 6.6023 21 6.31854 21 6C21 5.99839 21 5.99676 21 5.99515C21.0012 5.73759 20.9036 5.47964 20.7071 5.28313L16.7071 1.28313Z" />
</svg>
