<svg width="24" height="24" viewBox="0 0 24 24" xmlns="http://www.w3.org/2000/svg">
<path d="M15.809 15.2373C14.8919 16.3146 13.5257 16.998 12 16.998C9.2386 16.998 7.00001 14.7594 7.00001 11.998C7.00001 9.23662 9.23858 6.99805 12 6.99805C13.2757 6.99805 14.4398 7.47579 15.3232 8.26213C15.5012 8.09829 15.7389 7.99826 16 7.99826C16.5523 7.99826 17 8.44597 17 8.99826V11.9982C17 13.7251 17.796 14.9982 18.5 14.9982C19.204 14.9982 20 13.7251 20 11.9985C19.9997 10.259 19.4324 8.56704 18.3842 7.17898C17.336 5.79089 15.8639 4.78225 14.1909 4.30587C12.5181 3.82949 10.7355 3.91134 9.11322 4.53901C7.49098 5.16668 6.11753 6.30597 5.20091 7.78429C4.2843 9.2626 3.87447 10.9994 4.03353 12.7315C4.19258 14.4637 4.91184 16.0967 6.08237 17.3834C7.25287 18.6701 8.81086 19.5402 10.5202 19.862C12.2297 20.1837 13.9973 19.9395 15.5556 19.1664C16.0503 18.921 16.6504 19.1231 16.8958 19.6178C17.1413 20.1126 16.9392 20.7126 16.4444 20.9581C14.4967 21.9244 12.2871 22.2296 10.1503 21.8275C8.01355 21.4253 6.06608 20.3376 4.60295 18.7293C3.1398 17.1209 2.24073 15.0796 2.04191 12.9144C1.84308 10.7493 2.35537 8.57826 3.50113 6.73036C4.64691 4.88246 6.36373 3.45835 8.39152 2.67376C10.4193 1.88917 12.6476 1.78686 14.7387 2.38234C16.8299 2.9778 18.67 4.23862 19.9802 5.97373C21.2905 7.7088 21.9996 9.82374 22 11.9982C22 14.69 20.5568 16.9982 18.5 16.9982C17.3735 16.9982 16.4311 16.3058 15.809 15.2373ZM12 14.998C13.6568 14.998 15 13.6549 15 11.998C15 10.3412 13.6568 8.99805 12 8.99805C10.3432 8.99805 9.00001 10.3412 9.00001 11.998C9.00001 13.6549 10.3432 14.998 12 14.998Z" />
</svg>
