<svg width="24" height="24" viewBox="0 0 24 24" xmlns="http://www.w3.org/2000/svg">
<path fill-rule="evenodd" clip-rule="evenodd" d="M10 2C8.4087 2 6.88258 2.63214 5.75736 3.75736C4.63214 4.88258 4 6.4087 4 8V13.5C4 15.7543 4.89553 17.9163 6.48959 19.5104C8.08365 21.1045 10.2457 22 12.5 22C14.7543 22 16.9163 21.1045 18.5104 19.5104C20.1045 17.9163 21 15.7543 21 13.5V5C21 4.44772 20.5523 4 20 4C19.4477 4 19 4.44772 19 5V13.5C19 15.2239 18.3152 16.8772 17.0962 18.0962C15.8772 19.3152 14.2239 20 12.5 20C10.7761 20 9.12279 19.3152 7.90381 18.0962C6.68482 16.8772 6 15.2239 6 13.5V8C6 6.93913 6.42143 5.92172 7.17157 5.17157C7.92172 4.42143 8.93913 4 10 4C11.0609 4 12.0783 4.42143 12.8284 5.17157C13.5786 5.92172 14 6.93913 14 8V13.5C14 13.8978 13.842 14.2794 13.5607 14.5607C13.2794 14.842 12.8978 15 12.5 15C12.1022 15 11.7206 14.842 11.4393 14.5607C11.158 14.2794 11 13.8978 11 13.5V9C11 8.44772 10.5523 8 10 8C9.44772 8 9 8.44772 9 9V13.5C9 14.4283 9.36875 15.3185 10.0251 15.9749C10.6815 16.6313 11.5717 17 12.5 17C13.4283 17 14.3185 16.6313 14.9749 15.9749C15.6313 15.3185 16 14.4283 16 13.5V8C16 6.4087 15.3679 4.88258 14.2426 3.75736C13.1174 2.63214 11.5913 2 10 2Z" />
</svg>
