<svg width="24" height="24" viewBox="0 0 24 24" xmlns="http://www.w3.org/2000/svg">
<path fill-rule="evenodd" clip-rule="evenodd" d="M19.0852 19.0569C20.0079 18.133 20.7407 17.0355 21.241 15.8277C21.7437 14.6141 22.0016 13.3131 22 11.9993C21.9999 9.68596 21.1976 7.44423 19.73 5.65601C18.2624 3.86765 16.2199 2.64348 13.9508 2.19215C11.6818 1.74081 9.32633 2.09023 7.28597 3.18085C5.24561 4.27145 3.64653 6.03579 2.76118 8.17325C1.87584 10.3107 1.75901 12.689 2.43063 14.9029C3.10221 17.1169 4.52068 19.0294 6.44436 20.3148C8.36801 21.6001 10.6778 22.1787 12.9802 21.9519C15.2754 21.7258 17.4217 20.7134 19.0556 19.0864C19.0608 19.0815 19.066 19.0764 19.0711 19.0713C19.0759 19.0665 19.0806 19.0617 19.0852 19.0569ZM18.3204 16.9064C18.7581 16.3438 19.1192 15.7237 19.3932 15.0623C19.7952 14.092 20.0013 13.0518 20 12.0012C20 10.1491 19.3582 8.35554 18.184 6.92481C17.0099 5.49412 15.3759 4.51479 13.5606 4.15372C11.7454 3.79265 9.86106 4.07219 8.22877 4.94468C7.82836 5.15871 7.44919 5.40517 7.09449 5.68052L18.3204 16.9064ZM5.68031 7.09476L16.9052 18.3196C15.7187 19.2406 14.2916 19.813 12.7842 19.9615C10.9422 20.1429 9.09442 19.6801 7.55549 18.6518C6.01655 17.6236 4.88178 16.0935 4.3445 14.3223C3.80721 12.5512 3.90067 10.6485 4.60894 8.93861C4.88413 8.27423 5.24552 7.65491 5.68031 7.09476Z" />
</svg>
