<svg width="24" height="24" viewBox="0 0 24 24" xmlns="http://www.w3.org/2000/svg">
<path fill-rule="evenodd" clip-rule="evenodd" d="M7 4C6.44772 4 6 4.44772 6 5V12V19C6 19.5523 6.44772 20 7 20H13.5C14.091 20 14.6761 19.8836 15.2221 19.6575C15.768 19.4313 16.2641 19.0998 16.682 18.682C17.0998 18.2641 17.4313 17.768 17.6575 17.2221C17.8836 16.6761 18 16.0909 18 15.5C18 14.9091 17.8836 14.3239 17.6575 13.7779C17.4313 13.232 17.0998 12.7359 16.682 12.318C16.4049 12.041 16.0935 11.8019 15.7559 11.6063C16.5535 10.7703 17 9.65817 17 8.5C17 7.30653 16.5259 6.16193 15.682 5.31802C14.8381 4.47411 13.6935 4 12.5 4H7ZM14.2678 10.2678C13.7989 10.7366 13.163 11 12.5 11H8V6H12.5C13.163 6 13.7989 6.26339 14.2678 6.73223C14.7366 7.20107 15 7.83696 15 8.5C15 9.16304 14.7366 9.79893 14.2678 10.2678ZM14.4567 13.1903C14.1534 13.0647 13.8283 13 13.5 13H12.5H8V18H13.5C13.8283 18 14.1534 17.9353 14.4567 17.8097C14.76 17.6841 15.0356 17.4999 15.2678 17.2678C15.4999 17.0356 15.6841 16.76 15.8097 16.4567C15.9353 16.1534 16 15.8283 16 15.5C16 15.1717 15.9353 14.8466 15.8097 14.5433C15.6841 14.24 15.4999 13.9644 15.2678 13.7322C15.0356 13.5001 14.76 13.3159 14.4567 13.1903Z" />
</svg>
