<svg width="24" height="24" viewBox="0 0 24 24" xmlns="http://www.w3.org/2000/svg">
<path fill-rule="evenodd" clip-rule="evenodd" d="M5 2C4.44772 2 4 2.44772 4 3V22C4 22.3746 4.20935 22.7178 4.54242 22.8892C4.87549 23.0606 5.27642 23.0315 5.58124 22.8137L12 18.2289L18.4188 22.8137C18.7236 23.0315 19.1245 23.0606 19.4576 22.8892C19.7907 22.7178 20 22.3746 20 22V3C20 2.44772 19.5523 2 19 2H5ZM11.4188 16.1863L6 20.0568V4H18V20.0568L12.5812 16.1863C12.2335 15.9379 11.7665 15.9379 11.4188 16.1863Z" />
</svg>
