<svg width="24" height="24" viewBox="0 0 24 24" xmlns="http://www.w3.org/2000/svg">
<path fill-rule="evenodd" clip-rule="evenodd" d="M1 5C1 4.44772 1.44772 4 2 4H16C16.5523 4 17 4.44772 17 5V9.13148L21.4453 6.16795C21.7522 5.96338 22.1467 5.94431 22.4719 6.11833C22.797 6.29234 23 6.6312 23 7V17C23 17.3688 22.797 17.7077 22.4719 17.8817C22.1467 18.0557 21.7522 18.0366 21.4453 17.8321L17 14.8685V19C17 19.5523 16.5523 20 16 20H2C1.44772 20 1 19.5523 1 19V5ZM17 11.5352V12.4648L21 15.1315V8.86852L17 11.5352ZM15 6V10.9863C14.9999 10.996 14.9999 11.0058 15 11.0155V12.9845C14.9999 12.9942 14.9999 13.004 15 13.0137V18H3V6H15ZM6 8C5.44772 8 5 8.44772 5 9C5 9.55228 5.44772 10 6 10H6.01C6.56228 10 7.01 9.55228 7.01 9C7.01 8.44772 6.56228 8 6.01 8H6Z" />
</svg>
