<svg width="24" height="24" viewBox="0 0 24 24" xmlns="http://www.w3.org/2000/svg">
<path fill-rule="evenodd" clip-rule="evenodd" d="M2 2C1.44772 2 1 2.44772 1 3V17C1 17.4045 1.24364 17.7691 1.61732 17.9239C1.99099 18.0787 2.42111 17.9931 2.70711 17.7071L5 15.4142V18C5 18.5523 5.44772 19 6 19H17.5858L20.2929 21.7071C20.5789 21.9931 21.009 22.0787 21.3827 21.9239C21.7564 21.7691 22 21.4045 22 21V7C22 6.44772 21.5523 6 21 6H18V3C18 2.44772 17.5523 2 17 2H2ZM16 7V4H3V14.5858L4.29289 13.2929C4.48043 13.1054 4.73478 13 5 13H6H16V7ZM7 15H17C17.5523 15 18 14.5523 18 14V8H20V18.5858L18.7071 17.2929C18.5196 17.1054 18.2652 17 18 17H7V15Z" />
</svg>
