<svg width="24" height="24" viewBox="0 0 24 24" xmlns="http://www.w3.org/2000/svg">
<path fill-rule="evenodd" clip-rule="evenodd" d="M12 2C12.5523 2 13 2.44772 13 3V14.576L16.2929 11.2831C16.6834 10.8926 17.3166 10.8926 17.7071 11.2831C18.0976 11.6737 18.0976 12.3068 17.7071 12.6973L12.7854 17.619C12.6023 17.8511 12.3185 18 12 18C11.6815 18 11.3977 17.8511 11.2146 17.619L6.29289 12.6973C5.90237 12.3068 5.90237 11.6737 6.29289 11.2831C6.68342 10.8926 7.31658 10.8926 7.70711 11.2831L11 14.576V3C11 2.44772 11.4477 2 12 2ZM5 20C4.44772 20 4 20.4477 4 21C4 21.5523 4.44772 22 5 22H19C19.5523 22 20 21.5523 20 21C20 20.4477 19.5523 20 19 20H5Z" />
</svg>
