<svg width="24" height="24" viewBox="0 0 24 24" xmlns="http://www.w3.org/2000/svg">
<path fill-rule="evenodd" clip-rule="evenodd" d="M16.2929 3.29289C16.6834 2.90237 17.3166 2.90237 17.7071 3.29289L20.7071 6.29289C21.0976 6.68342 21.0976 7.31658 20.7071 7.70711L17.7071 10.7071L9.41421 19H20C20.5523 19 21 19.4477 21 20C21 20.5523 20.5523 21 20 21H7H4C3.44772 21 3 20.5523 3 20V17C3 16.7348 3.10536 16.4804 3.29289 16.2929L13.2928 6.29299C13.2928 6.29296 13.2929 6.29293 13.2929 6.29289C13.2929 6.29286 13.293 6.29283 13.293 6.29279L16.2929 3.29289ZM14 8.41421L5 17.4142V19H6.58579L15.5858 10L14 8.41421ZM17 8.58579L15.4142 7L17 5.41421L18.5858 7L17 8.58579Z" />
</svg>
