<svg width="24" height="24" viewBox="0 0 24 24" xmlns="http://www.w3.org/2000/svg">
<path fill-rule="evenodd" clip-rule="evenodd" d="M12 2C9.34784 2 6.8043 3.05357 4.92893 4.92893C3.05357 6.8043 2 9.34784 2 12C2 14.6522 3.05357 17.1957 4.92893 19.0711C6.8043 20.9464 9.34784 22 12 22C13.3132 22 14.6136 21.7413 15.8268 21.2388C17.0401 20.7362 18.1425 19.9997 19.0711 19.0711C19.9997 18.1425 20.7362 17.0401 21.2388 15.8268C21.7413 14.6136 22 13.3132 22 12C22 10.6868 21.7413 9.38642 21.2388 8.17317C20.7362 6.95991 19.9997 5.85752 19.0711 4.92893C18.1425 4.00035 17.0401 3.26375 15.8268 2.7612C14.6136 2.25866 13.3132 2 12 2ZM6.34315 6.34315C7.84344 4.84285 9.87827 4 12 4C13.0506 4 14.0909 4.20693 15.0615 4.60896C16.0321 5.011 16.914 5.60028 17.6569 6.34315C18.3997 7.08601 18.989 7.96793 19.391 8.93853C19.7931 9.90914 20 10.9494 20 12C20 13.0506 19.7931 14.0909 19.391 15.0615C18.989 16.0321 18.3997 16.914 17.6569 17.6569C16.914 18.3997 16.0321 18.989 15.0615 19.391C14.0909 19.7931 13.0506 20 12 20C9.87827 20 7.84344 19.1571 6.34315 17.6569C4.84285 16.1566 4 14.1217 4 12C4 9.87827 4.84285 7.84344 6.34315 6.34315ZM9 9C8.44772 9 8 9.44772 8 10C8 10.5523 8.44772 11 9 11H9.01C9.56228 11 10.01 10.5523 10.01 10C10.01 9.44772 9.56228 9 9.01 9H9ZM14 10C14 9.44772 14.4477 9 15 9H15.01C15.5623 9 16.01 9.44772 16.01 10C16.01 10.5523 15.5623 11 15.01 11H15C14.4477 11 14 10.5523 14 10ZM10.2143 14.3001C9.82777 13.9057 9.19463 13.8992 8.80015 14.2857C8.40566 14.6722 8.3992 15.3054 8.78571 15.6999C9.2047 16.1275 9.70481 16.4672 10.2567 16.6991C10.8087 16.931 11.4013 17.0505 12 17.0505C12.5987 17.0505 13.1913 16.931 13.7433 16.6991C14.2952 16.4672 14.7953 16.1275 15.2143 15.6999C15.6008 15.3054 15.5943 14.6722 15.1999 14.2857C14.8054 13.8992 14.1722 13.9057 13.7857 14.3001C13.5529 14.5377 13.2751 14.7265 12.9685 14.8553C12.6619 14.9841 12.3326 15.0505 12 15.0505C11.6674 15.0505 11.3381 14.9841 11.0315 14.8553C10.7249 14.7265 10.4471 14.5377 10.2143 14.3001Z" />
</svg>
