<svg width="24" height="24" viewBox="0 0 24 24" xmlns="http://www.w3.org/2000/svg">
<path fill-rule="evenodd" clip-rule="evenodd" d="M15.7854 2.37122C15.6023 2.13918 15.3185 1.99023 15 1.99023C14.9524 1.99023 14.9055 1.99356 14.8597 2H4C3.44772 2 3 2.44772 3 3V21C3 21.5523 3.44772 22 4 22H20C20.5523 22 21 21.5523 21 21V8C21 7.99838 21 7.99675 21 7.99513C21 7.9935 21 7.99187 21 7.99023C21 7.67169 20.8511 7.38794 20.619 7.20481L15.7854 2.37122ZM14 4H5V20H19V8.99023H15C14.4477 8.99023 14 8.54252 14 7.99023V4ZM17.576 6.99023H16V5.41421L17.576 6.99023Z" />
</svg>
