<svg width="24" height="24" viewBox="0 0 24 24" xmlns="http://www.w3.org/2000/svg">
<path fill-rule="evenodd" clip-rule="evenodd" d="M7.5 4C7.08885 4 6.71961 4.25165 6.56926 4.63432L3.0416 13.6131C3.03564 13.6273 3.03001 13.6416 3.0247 13.6561L1.06923 18.6344C0.867311 19.1484 1.12034 19.7289 1.63439 19.9308C2.14844 20.1327 2.72885 19.8797 2.93077 19.3656L4.64558 15H11.3544L13.0692 19.3656C13.2711 19.8797 13.8516 20.1327 14.3656 19.9308C14.8797 19.7289 15.1327 19.1484 14.9308 18.6344L12.9753 13.6561C12.97 13.6416 12.9644 13.6273 12.9584 13.6131L9.43074 4.63432C9.28039 4.25165 8.91115 4 8.5 4H7.5ZM5.4313 13L8 6.46202L10.5687 13H5.4313ZM17.5858 14.5858C17.9609 14.2107 18.4696 14 19 14C19.5304 14 20.0391 14.2107 20.4142 14.5858C20.7893 14.9609 21 15.4696 21 16C21 16.5304 20.7893 17.0391 20.4142 17.4142C20.0391 17.7893 19.5304 18 19 18C18.4696 18 17.9609 17.7893 17.5858 17.4142C17.2107 17.0391 17 16.5304 17 16C17 15.4696 17.2107 14.9609 17.5858 14.5858ZM22 20C21.5944 20 21.2453 19.7586 21.0884 19.4116C20.4648 19.7932 19.7431 20 19 20C17.9391 20 16.9217 19.5786 16.1716 18.8284C15.4214 18.0783 15 17.0609 15 16C15 14.9391 15.4214 13.9217 16.1716 13.1716C16.9217 12.4214 17.9391 12 19 12C19.7431 12 20.4648 12.2068 21.0884 12.5884C21.2453 12.2414 21.5944 12 22 12C22.5523 12 23 12.4477 23 13V16V19C23 19.5523 22.5523 20 22 20Z" />
</svg>
