<svg width="24" height="24" viewBox="0 0 24 24" xmlns="http://www.w3.org/2000/svg">
<path fill-rule="evenodd" clip-rule="evenodd" d="M10.9923 4.12414C11.0608 3.57612 10.6721 3.07633 10.124 3.00783C9.57601 2.93932 9.07622 3.32805 9.00772 3.87607L8.49222 8.00011H5C4.44772 8.00011 4 8.44782 4 9.00011C4 9.55239 4.44772 10.0001 5 10.0001H8.24222L7.74222 14.0001H5C4.44772 14.0001 4 14.4478 4 15.0001C4 15.5524 4.44772 16.0001 5 16.0001H7.49222L7.00772 19.8761C6.93922 20.4241 7.32795 20.9239 7.87597 20.9924C8.42399 21.0609 8.92378 20.6722 8.99228 20.1241L9.50778 16.0001H13.4922L13.0077 19.8761C12.9392 20.4241 13.3279 20.9239 13.876 20.9924C14.424 21.0609 14.9238 20.6722 14.9923 20.1241L15.5078 16.0001H19C19.5523 16.0001 20 15.5524 20 15.0001C20 14.4478 19.5523 14.0001 19 14.0001H15.7578L16.2578 10.0001H19C19.5523 10.0001 20 9.55239 20 9.00011C20 8.44782 19.5523 8.00011 19 8.00011H16.5078L16.9923 4.12414C17.0608 3.57612 16.6721 3.07633 16.124 3.00783C15.576 2.93932 15.0762 3.32805 15.0077 3.87607L14.4922 8.00011H10.5078L10.9923 4.12414ZM13.7422 14.0001L14.2422 10.0001H10.2578L9.75778 14.0001H13.7422Z" />
</svg>
