<svg width="24" height="24" viewBox="0 0 24 24"  xmlns="http://www.w3.org/2000/svg">
<path d="M3.00017 13.0001H4.00015V15.0001V20C4.00015 21.103 4.89713 22 6.00011 22H17.9999C19.1029 22 19.9998 21.103 19.9998 20V15.0001V13.0001H20.9998C21.4038 13.0001 21.7698 12.7561 21.9238 12.3831C22.0788 12.0091 21.9928 11.5791 21.7068 11.2931L12.707 2.29325C12.316 1.90225 11.684 1.90225 11.293 2.29325L2.29318 11.2931C2.00719 11.5791 1.92119 12.0091 2.07619 12.3831C2.23018 12.7561 2.59618 13.0001 3.00017 13.0001ZM12 4.41422L17.9999 10.4141V15.0001L18.0009 20H6.00011V15.0001V12.0001V10.4141L12 4.41422Z"/>
</svg>
