<svg width="24" height="24" viewBox="0 0 24 24" xmlns="http://www.w3.org/2000/svg">
<path fill-rule="evenodd" clip-rule="evenodd" d="M2 4C2 3.44772 2.44772 3 3 3H21C21.5523 3 22 3.44772 22 4V17.499C22 17.4997 22 17.5003 22 17.501V20C22 20.5523 21.5523 21 21 21H4.50098C4.50033 21 4.49967 21 4.49902 21H3C2.44772 21 2 20.5523 2 20V4ZM6.91421 19H20V17.9142L14 11.9142L6.91421 19ZM20 15.0858L14.7071 9.79289C14.3166 9.40237 13.6834 9.40237 13.2929 9.79289L4.08579 19H4V5H20V15.0858ZM6 9C6 7.89543 6.89543 7 8 7C9.10457 7 10 7.89543 10 9C10 10.1046 9.10457 11 8 11C6.89543 11 6 10.1046 6 9Z" />
</svg>
