<svg width="24" height="24" viewBox="0 0 24 24" xmlns="http://www.w3.org/2000/svg">
<path fill-rule="evenodd" clip-rule="evenodd" d="M17 5.00013C17 4.44784 16.5523 4.00013 16 4.00013H13.0147C13.004 3.99996 12.9934 3.99996 12.9828 4.00013H10C9.44772 4.00013 9 4.44784 9 5.00013C9 5.55241 9.44772 6.00013 10 6.00013H11.847L10.1327 18.0001H8C7.44772 18.0001 7 18.4478 7 19.0001C7 19.5524 7.44772 20.0001 8 20.0001H10.9853C10.996 20.0003 11.0066 20.0003 11.0172 20.0001H14C14.5523 20.0001 15 19.5524 15 19.0001C15 18.4478 14.5523 18.0001 14 18.0001H12.153L13.8673 6.00013H16C16.5523 6.00013 17 5.55241 17 5.00013Z" />
</svg>
