<svg width="24" height="24" viewBox="0 0 24 24" xmlns="http://www.w3.org/2000/svg">
<path fill-rule="evenodd" clip-rule="evenodd" d="M19.5927 4.70453C19.9818 4.31259 19.9795 3.67943 19.5875 3.29033C19.1956 2.90122 18.5624 2.90353 18.1733 3.29547L17.1382 4.33817C17.1315 4.34442 17.125 4.35078 17.1184 4.35724C17.1084 4.3672 17.0986 4.37732 17.0891 4.38758L10.1617 11.3656C9.32691 10.7984 8.3202 10.4668 7.235 10.4668C4.33683 10.4668 2 12.8314 2 15.7328C2 18.635 4.33668 20.9998 7.235 20.9998C10.1342 20.9998 12.471 18.6352 12.471 15.7328C12.471 14.641 12.14 13.6253 11.5727 12.783L14.6468 9.68648L17.1132 12.1715C17.5023 12.5635 18.1355 12.5659 18.5274 12.1769C18.9194 11.7878 18.9218 11.1546 18.5328 10.7626L16.0559 8.26709L17.8234 6.48668L20.2903 8.97145C20.6795 9.36338 21.3126 9.36566 21.7045 8.97655C22.0965 8.58743 22.0988 7.95427 21.7097 7.56234L19.2325 5.06729L19.5927 4.70453ZM4 15.7328C4 13.9222 5.45517 12.4668 7.235 12.4668C9.01514 12.4668 10.471 13.9225 10.471 15.7328C10.471 17.5444 9.01583 18.9998 7.235 18.9998C5.45532 18.9998 4 17.5446 4 15.7328Z" />
</svg>
