<svg width="24" height="24" viewBox="0 0 24 24" xmlns="http://www.w3.org/2000/svg">
<path fill-rule="evenodd" clip-rule="evenodd" d="M14.8614 4.00049C15.5413 3.98146 16.2179 4.10135 16.8499 4.35282C17.4819 4.60429 18.0559 4.98206 18.5368 5.463C19.0178 5.94395 19.3955 6.51796 19.647 7.14993C19.8985 7.78189 20.0184 8.45852 19.9993 9.13841C19.9803 9.81831 19.8228 10.4872 19.5364 11.1041C19.2499 11.721 18.8407 12.273 18.3336 12.7263C17.9218 13.0943 17.8864 13.7265 18.2545 14.1383C18.6225 14.55 19.2547 14.5854 19.6665 14.2174C20.3764 13.5828 20.9494 12.81 21.3504 11.9463C21.7514 11.0826 21.9719 10.1462 21.9986 9.19436C22.0252 8.24251 21.8574 7.29523 21.5053 6.41048C21.1532 5.52573 20.6244 4.72211 19.951 4.04879C19.2777 3.37546 18.4741 2.8466 17.5894 2.49454C16.7046 2.14248 15.7573 1.97464 14.8055 2.00128C13.8536 2.02791 12.9172 2.24847 12.0535 2.64946C11.1899 3.05045 10.4171 3.62344 9.78247 4.33337C9.4144 4.74512 9.44981 5.3773 9.86156 5.74537C10.2733 6.11344 10.9055 6.07803 11.2736 5.66627C11.7269 5.15918 12.2788 4.74991 12.8958 4.46348C13.5127 4.17706 14.1815 4.01952 14.8614 4.00049ZM15.7071 8.29289C16.0976 8.68342 16.0976 9.31658 15.7071 9.70711L9.70711 15.7071C9.31658 16.0976 8.68342 16.0976 8.29289 15.7071C7.90237 15.3166 7.90237 14.6834 8.29289 14.2929L14.2929 8.29289C14.6834 7.90237 15.3166 7.90237 15.7071 8.29289ZM5.74555 9.86138C6.11362 10.2731 6.07821 10.9053 5.66646 11.2734C5.15936 11.7267 4.75009 12.2787 4.46367 12.8956C4.17725 13.5125 4.0197 14.1813 4.00068 14.8612C3.98165 15.5411 4.10154 16.2178 4.35301 16.8497C4.60448 17.4817 4.98224 18.0557 5.46318 18.5367C5.94413 19.0176 6.51814 19.3954 7.15011 19.6468C7.78207 19.8983 8.4587 20.0182 9.1386 19.9992C9.81849 19.9801 10.4874 19.8226 11.1043 19.5362C11.7212 19.2497 12.2732 18.8405 12.7265 18.3334C13.0945 17.9216 13.7267 17.8862 14.1385 18.2543C14.5502 18.6224 14.5856 19.2545 14.2176 19.6663C13.5829 20.3762 12.8102 20.9492 11.9465 21.3502C11.0828 21.7512 10.1464 21.9717 9.19455 21.9984C8.2427 22.025 7.29542 21.8572 6.41067 21.5051C5.52591 21.1531 4.72229 20.6242 4.04897 19.9509C3.37565 19.2775 2.84678 18.4739 2.49472 17.5892C2.14266 16.7044 1.97482 15.7571 2.00146 14.8053C2.0281 13.8534 2.24866 12.917 2.64965 12.0534C3.05064 11.1897 3.62362 10.4169 4.33355 9.78228C4.74531 9.41421 5.37748 9.44963 5.74555 9.86138Z" />
</svg>
