<svg width="24" height="24" viewBox="0 0 24 24" xmlns="http://www.w3.org/2000/svg">
    <path fill-rule="evenodd" clip-rule="evenodd" d="M7 3C7 2.44772 7.44772 2 8 2H20C20.5523 2 21 2.44772 21 3V21C21 21.5523 20.5523 22 20 22H8C7.44772 22 7 21.5523 7 21V18C7 17.4477 7.44772 17 8 17C8.55228 17 9 17.4477 9 18V20H19V4H9V6C9 6.55228 8.55228 7 8 7C7.44772 7 7 6.55228 7 6V3ZM6.70724 15.7388C6.31672 16.1294 5.68355 16.1294 5.29303 15.7388L2.29303 12.7388C2.09486 12.5407 1.99725 12.28 2.0002 12.0203C2.00007 12.0136 2 12.0068 2 12C2 11.6473 2.18264 11.3372 2.45852 11.1591L5.29303 8.32463C5.68355 7.93411 6.31672 7.93411 6.70724 8.32463C7.09777 8.71516 7.09777 9.34832 6.70724 9.73884L5.44609 11H13C13.5523 11 14 11.4477 14 12C14 12.5523 13.5523 13 13 13H5.38261L6.70724 14.3246C7.09777 14.7152 7.09777 15.3483 6.70724 15.7388Z" />
</svg>
