<svg width="24" height="24" viewBox="0 0 24 24" xmlns="http://www.w3.org/2000/svg">
<path fill-rule="evenodd" clip-rule="evenodd" d="M3.13982 3C2.83956 2.95784 2.52381 3.05221 2.29289 3.28313C2.0964 3.47962 1.99877 3.73755 2.00001 3.99509C2 3.99672 2 3.99836 2 4V20C2 20.5523 2.44772 21 3 21H21C21.5523 21 22 20.5523 22 20V4C22 3.99839 22 3.99676 22 3.99515C22.0012 3.73759 21.9036 3.47964 21.7071 3.28313C21.4762 3.05221 21.1604 2.95784 20.8602 3H3.13982ZM4 6.40445V19H20V6.40445L12.7071 13.6973C12.3166 14.0879 11.6834 14.0879 11.2929 13.6973L4 6.40445ZM18.576 5L12 11.576L5.42398 5H18.576Z" />
</svg>
