<svg width="24" height="24" viewBox="0 0 24 24" xmlns="http://www.w3.org/2000/svg">
    <path fill-rule="evenodd" clip-rule="evenodd" d="M0.292893 0.292893C0.683417 -0.0976311 1.31658 -0.0976311 1.70711 0.292893L6.84604 5.43183C6.85467 5.44016 6.86315 5.44863 6.87146 5.45724L18.6969 17.2827C18.7038 17.2894 18.7105 17.2961 18.7171 17.3029L23.7071 22.2929C24.0976 22.6834 24.0976 23.3166 23.7071 23.7071C23.3166 24.0976 22.6834 24.0976 22.2929 23.7071L17.5856 18.9999H5.00692H4.99449H3C2.44772 18.9999 2 18.5521 2 17.9999C2 17.4476 2.44772 16.9999 3 16.9999H4V9.99986C4 8.67184 4.32469 7.41698 4.89888 6.31309L0.292893 1.70711C-0.0976311 1.31658 -0.0976311 0.683417 0.292893 0.292893ZM6.10195 16.9999L6.94235 8.35656L15.5856 16.9999H6.10195ZM10 21C9.44771 21 9 21.4477 9 22C9 22.5523 9.44771 23 10 23H14C14.5523 23 15 22.5523 15 22C15 21.4477 14.5523 21 14 21H10ZM9.2417 4.67014C10.1564 4.19664 11.1776 3.96658 12.2069 4.00211C13.2363 4.03763 14.2392 4.33755 15.1191 4.87298C15.9989 5.40841 16.7262 6.16132 17.2307 7.05925C17.7353 7.95717 18.0002 8.96987 18 9.99985V10.0001V14.0001C18 14.5524 18.4477 15.0001 19 15.0001C19.5523 15.0001 20 14.5524 20 14.0001V10.0003V10.0001C20.0002 8.62684 19.647 7.27666 18.9743 6.07949C18.3015 4.88225 17.3319 3.87836 16.1588 3.16446C14.9856 2.45055 13.6484 2.05066 12.2759 2.0033C10.9034 1.95593 9.54185 2.26267 8.32227 2.894C7.8318 3.14789 7.64002 3.75132 7.89392 4.24178C8.14781 4.73225 8.75123 4.92403 9.2417 4.67014Z" />
</svg>
