<svg width="24" height="24" viewBox="0 0 24 24" xmlns="http://www.w3.org/2000/svg">
<path d="M4.00299 21.0001C4.08399 21.0001 4.165 20.9901 4.245 20.9701L8.245 19.9701C8.421 19.9261 8.582 19.8351 8.71 19.7071L21.003 7.41411C21.381 7.03611 21.589 6.53411 21.589 6.00011C21.589 5.46611 21.381 4.96411 21.003 4.58611L19.417 3.00011C18.661 2.24411 17.345 2.24411 16.589 3.00011L4.296 15.2931C4.168 15.4211 4.077 15.5821 4.033 15.7571L3.033 19.7571C2.947 20.0981 3.048 20.4581 3.296 20.7071C3.485 20.8971 3.74099 21.0001 4.00299 21.0001ZM18.003 4.41411L19.589 6.00011L18.003 7.58611L16.417 6.00011L18.003 4.41411ZM5.906 16.5111L15.003 7.41411L16.589 9.00011L7.491 18.0971L5.377 18.6251L5.906 16.5111Z" />
</svg>
