<svg width="24" height="24" viewBox="0 0 24 24" xmlns="http://www.w3.org/2000/svg">
<path fill-rule="evenodd" clip-rule="evenodd" d="M14.7071 2.29289C14.3166 1.90237 13.6834 1.90237 13.2929 2.29289C12.9744 2.61136 12.9157 3.09117 13.1166 3.46919L8.58579 8H5C4.44772 8 4 8.44772 4 9V10C4 10.2652 4.10536 10.5196 4.29289 10.7071L8.08579 14.5L3.29289 19.2929C2.90237 19.6834 2.90237 20.3166 3.29289 20.7071C3.68342 21.0976 4.31658 21.0976 4.70711 20.7071L9.5 15.9142L13.2929 19.7071C13.6834 20.0976 14.3166 20.0976 14.7071 19.7071L15.7071 18.7071C15.8946 18.5196 16 18.2652 16 18V15.4142L20.5308 10.8834C20.9088 11.0843 21.3886 11.0256 21.7071 10.7071C22.0976 10.3166 22.0976 9.68342 21.7071 9.29289L21.2073 8.79309C21.2072 8.79303 21.2072 8.79296 21.2071 8.79289C21.207 8.79283 21.207 8.79276 21.2069 8.79269L15.2071 2.79289L14.7071 2.29289ZM14.5 4.91421L9.70711 9.70711C9.51957 9.89464 9.26522 10 9 10H6.41421L10.2071 13.7929L14 17.5858V15C14 14.7348 14.1054 14.4804 14.2929 14.2929L19.0858 9.5L14.5 4.91421Z" />
</svg>
