<svg width="24" height="24" viewBox="0 0 24 24" xmlns="http://www.w3.org/2000/svg">
<path fill-rule="evenodd" clip-rule="evenodd" d="M16.9984 7.94341C17.0475 8.80908 16.814 9.66725 16.333 10.3887C15.8631 11.0936 15.182 11.6305 14.3881 11.9231C14.0025 12.1162 13.6502 12.4886 13.3988 12.9913C13.1033 13.6006 12.9658 14.2746 12.9988 14.9512C13.0257 15.5029 12.6004 15.9719 12.0488 15.9988C11.4971 16.0257 11.0281 15.6004 11.0012 15.0488C10.9518 14.0373 11.1574 13.0297 11.6046 12.1078C12.0619 11.1931 12.7473 10.483 13.5753 10.0946L13.6683 10.0566C14.0773 9.91283 14.4284 9.64005 14.6689 9.2793C14.9094 8.9186 15.0261 8.48949 15 8C15 7.50392 14.7632 7.01429 14.3237 6.63785C13.8531 6.23396 13.1941 6 12.5 6H11.5C10.8059 6 10.1469 6.23396 9.6756 6.63842C9.23614 7.01491 9 7.50345 9 8C9 8.55228 8.55228 9 8 9C7.44772 9 7 8.55228 7 8C7 6.90496 7.50152 5.86738 8.37373 5.12015C9.21448 4.3986 10.3372 4 11.5 4H12.5C13.6628 4 14.7855 4.3986 15.6255 5.1195C16.4977 5.86656 17 6.90528 16.9984 7.94341ZM11 19.01V19C11 18.4477 11.4477 18 12 18C12.5523 18 13 18.4477 13 19V19.01C13 19.5623 12.5523 20.01 12 20.01C11.4477 20.01 11 19.5623 11 19.01Z" />
</svg>
