<svg width="24" height="24" viewBox="0 0 24 24" xmlns="http://www.w3.org/2000/svg">
    <path fill-rule="evenodd" clip-rule="evenodd" d="M13.1416 3.08997C11.162 2.83453 9.15332 3.23706 7.42497 4.23555C6.4976 4.7713 5.67856 5.46268 5 6.27306V5C5 4.44772 4.55229 4 4 4C3.44772 4 3 4.44772 3 5V9C3 9.55229 3.44772 10 4 10H4.46951C4.48962 10.0006 4.50968 10.0006 4.52968 10H8C8.55229 10 9 9.55229 9 9C9 8.44772 8.55229 8 8 8H6.19129C6.77809 7.175 7.53823 6.47988 8.42544 5.96733C9.77393 5.18829 11.3412 4.87423 12.8857 5.07353C14.4302 5.27282 15.8664 5.97442 16.973 7.07024C18.0796 8.16607 18.7952 9.59532 19.0095 11.1378C19.0855 11.6849 19.5906 12.0667 20.1376 11.9907C20.6847 11.9147 21.0665 11.4096 20.9905 10.8625C20.7157 8.88551 19.7986 7.05365 18.3803 5.64914C16.962 4.24464 15.1213 3.34541 13.1416 3.08997ZM3.86235 12.0095C4.40938 11.9335 4.91446 12.3153 4.99048 12.8624C5.20485 14.4049 5.92043 15.8341 7.02701 16.93C8.13358 18.0258 9.56976 18.7274 11.1143 18.9267C12.6588 19.126 14.2261 18.8119 15.5746 18.0329C16.4618 17.5203 17.222 16.8251 17.8088 16H16C15.4477 16 15 15.5523 15 15C15 14.4477 15.4477 14 16 14H19.4776C19.4928 13.9997 19.508 13.9997 19.5232 14H20C20.5523 14 21 14.4477 21 15V19C21 19.5523 20.5523 20 20 20C19.4477 20 19 19.5523 19 19V17.7271C18.3214 18.5375 17.5024 19.2289 16.575 19.7646C14.8467 20.7631 12.838 21.1657 10.8584 20.9102C8.87873 20.6548 7.038 19.7556 5.61972 18.3511C4.20143 16.9466 3.28427 15.1147 3.00952 13.1376C2.9335 12.5906 3.31532 12.0855 3.86235 12.0095Z" />
</svg>
