<svg width="24" height="24" viewBox="0 0 24 24" xmlns="http://www.w3.org/2000/svg">
<path fill-rule="evenodd" clip-rule="evenodd" d="M3.44721 2.10557C3.13723 1.95058 2.76909 1.96714 2.47427 2.14935C2.17945 2.33156 2 2.65342 2 3V12V21C2 21.3466 2.17945 21.6684 2.47427 21.8507C2.76909 22.0329 3.13723 22.0494 3.44721 21.8944L21.4472 12.8944C21.786 12.725 22 12.3788 22 12C22 11.6212 21.786 11.275 21.4472 11.1056L3.44721 2.10557ZM4 13H9C9.55228 13 10 12.5523 10 12C10 11.4477 9.55228 11 9 11H4V4.61804L18.7639 12L4 19.382V13Z" />
</svg>
