<svg width="24" height="24" viewBox="0 0 24 24" xmlns="http://www.w3.org/2000/svg">
<path fill-rule="evenodd" clip-rule="evenodd" d="M12.8966 2.05709C12.7281 1.71593 12.3805 1.49999 12 1.5C11.6195 1.50001 11.2719 1.71598 11.1034 2.05715L8.24633 7.84163L1.8568 8.76631C1.47975 8.82088 1.16646 9.08495 1.04886 9.44732C0.931263 9.8097 1.02979 10.2074 1.30294 10.473L5.93237 14.9739L4.84144 21.3309C4.77706 21.706 4.9312 22.0851 5.23905 22.3089C5.5469 22.5327 5.95509 22.5623 6.29203 22.3853L12.0065 19.3838L17.7072 22.3849C18.0441 22.5622 18.4525 22.5329 18.7606 22.3091C19.0687 22.0854 19.223 21.7061 19.1586 21.3308L18.0677 14.9748L22.6973 10.4718C22.9703 10.2062 23.0688 9.80855 22.9512 9.44623C22.8335 9.0839 22.5203 8.81987 22.1433 8.76531L15.7537 7.84063L12.8966 2.05709ZM9.80662 9.19885L12.0001 4.75795L14.1935 9.19791C14.3393 9.49306 14.621 9.69754 14.9468 9.74469L19.8473 10.4539L16.2958 13.9082C16.0596 14.1379 15.9517 14.4694 16.0074 14.7942L16.8444 19.6705L12.4729 17.3691C12.1816 17.2158 11.8335 17.2156 11.542 17.3687L7.15521 19.6728L7.99262 14.7931C8.04837 14.4683 7.94045 14.1368 7.70411 13.907L4.15333 10.4548L9.05326 9.74569C9.37908 9.69854 9.66083 9.49403 9.80662 9.19885Z" />
</svg>
