<svg width="24" height="24" viewBox="0 0 24 24" xmlns="http://www.w3.org/2000/svg">
<path fill-rule="evenodd" clip-rule="evenodd" d="M11.9925 3.99998C13.0014 3.98531 14.0166 4.13959 14.8781 4.46265L14.8785 4.46281C15.7116 4.77562 16.4986 5.28532 16.8887 6.04149C17.1419 6.53231 16.9493 7.13546 16.4585 7.38868C15.9677 7.6419 15.3645 7.44928 15.1113 6.95847C15.0474 6.83467 14.7965 6.56846 14.1759 6.33531L11.9925 3.99998ZM11.9925 3.99998L14.1755 6.33515C13.5833 6.11315 12.8197 5.98746 12.0154 5.99986L12 5.99998H11C10.337 5.99998 9.70107 6.26337 9.23223 6.73221C8.76339 7.20105 8.5 7.83694 8.5 8.49998C8.5 9.16302 8.76339 9.7989 9.23223 10.2677C9.70107 10.7366 10.337 11 11 11L11.0065 11H19C19.5523 11 20 11.4477 20 12C20 12.5523 19.5523 13 19 13H5C4.44772 13 4 12.5523 4 12C4 11.4477 4.44772 11 5 11H7.25833C6.76751 10.2654 6.5 9.39647 6.5 8.49998C6.5 7.3065 6.97411 6.16191 7.81802 5.318C8.66193 4.47408 9.80653 3.99998 11 3.99998H11.9925ZM17.4898 16.1428C17.5686 15.5962 17.1894 15.0891 16.6428 15.0102C16.0962 14.9314 15.5891 15.3106 15.5102 15.8572C15.4238 16.4566 15.1227 17.0042 14.6629 17.3983C14.203 17.7924 13.6158 18.0063 13.0102 18.0001L13.0103 18H13H11.5L11.4846 18.0001C10.6799 18.0125 9.91536 17.8867 9.32455 17.6648C8.70357 17.4316 8.45259 17.1653 8.3887 17.0415C8.13548 16.5507 7.53233 16.3581 7.04151 16.6113C6.5507 16.8645 6.35808 17.4677 6.6113 17.9585C7.00142 18.7147 7.78843 19.2244 8.62145 19.5372C9.48238 19.8605 10.4988 20.0147 11.5075 20H12.9952C14.0833 20.0098 15.1382 19.6251 15.9644 18.9168C16.7921 18.2074 17.3341 17.2217 17.4898 16.1428Z" />
</svg>
