<svg width="24" height="24" viewBox="0 0 24 24" xmlns="http://www.w3.org/2000/svg">
<path fill-rule="evenodd" clip-rule="evenodd" d="M10.2159 4.32915C11.1618 3.96783 12.1952 3.90223 13.1792 4.14104C14.1632 4.37985 15.0516 4.91182 15.7267 5.66654C16.0949 6.07818 16.7271 6.11339 17.1387 5.74518C17.5503 5.37698 17.5855 4.74479 17.2173 4.33316C16.2722 3.27654 15.0285 2.5318 13.6509 2.19746C12.2732 1.86312 10.8265 1.95495 9.50222 2.46081C8.1779 2.96666 7.03838 3.86268 6.23444 5.03032C5.4305 6.19797 5.00004 7.58218 5 8.99982V8.99985V10H4C3.44772 10 3 10.4477 3 11V21C3 21.5523 3.44772 22 4 22H20C20.5523 22 21 21.5523 21 21V11C21 10.4477 20.5523 10 20 10H7V8.99988V8.99985C7.00003 7.98726 7.30751 6.99854 7.88174 6.16452C8.45599 5.33049 9.26993 4.69047 10.2159 4.32915ZM5 12V20H19V12H5ZM10 16C10 15.4477 10.4477 15 11 15H13C13.5523 15 14 15.4477 14 16C14 16.5523 13.5523 17 13 17H11C10.4477 17 10 16.5523 10 16Z" />
</svg>
