<svg width="24" height="24" viewBox="0 0 24 24" xmlns="http://www.w3.org/2000/svg">
    <path fill-rule="evenodd" clip-rule="evenodd" d="M1.70711 0.292893C1.31658 -0.0976311 0.683417 -0.0976311 0.292893 0.292893C-0.0976311 0.683417 -0.0976311 1.31658 0.292893 1.70711L6.58579 8H5C4.44772 8 4 8.44771 4 9V10C4 10.2652 4.10536 10.5196 4.29289 10.7071L8.08579 14.5L3.29289 19.2929C2.90237 19.6834 2.90237 20.3166 3.29289 20.7071C3.68342 21.0976 4.31658 21.0976 4.70711 20.7071L9.5 15.9142L13.2929 19.7071C13.6834 20.0976 14.3166 20.0976 14.7071 19.7071L15.7071 18.7071C15.8946 18.5196 16 18.2652 16 18V17.4142L22.2929 23.7071C22.6834 24.0976 23.3166 24.0976 23.7071 23.7071C24.0976 23.3166 24.0976 22.6834 23.7071 22.2929L1.70711 0.292893ZM14 15.4142L8.58579 10H6.41421L10.2071 13.7929L14 17.5858V15.4142ZM14.7071 2.29289C14.3166 1.90237 13.6834 1.90237 13.2929 2.29289C12.9744 2.61136 12.9157 3.09118 13.1166 3.46919L10.7929 5.79289C10.4024 6.18342 10.4024 6.81658 10.7929 7.20711C11.1834 7.59763 11.8166 7.59763 12.2071 7.20711L14.5 4.91421L19.0858 9.5L16.7929 11.7929C16.4024 12.1834 16.4024 12.8166 16.7929 13.2071C17.1834 13.5976 17.8166 13.5976 18.2071 13.2071L20.5308 10.8834C20.9088 11.0843 21.3886 11.0256 21.7071 10.7071C22.0976 10.3166 22.0976 9.68342 21.7071 9.29289L21.2073 8.79309L21.2071 8.79289L21.2069 8.7927L15.2071 2.79289L14.7071 2.29289Z" />
</svg>
