<svg width="24" height="24" viewBox="0 0 24 24" xmlns="http://www.w3.org/2000/svg">
    <path fill-rule="evenodd" clip-rule="evenodd" d="M15 4.99023C15 4.43795 15.4477 3.99023 16 3.99023C17.5913 3.99023 19.1174 4.62238 20.2426 5.74759C21.3679 6.87281 22 8.39894 22 9.99023C22 11.5815 21.3679 13.1077 20.2426 14.2329C20.0469 14.4286 19.8391 14.6094 19.6209 14.7745C19.9014 14.8996 20.176 15.0394 20.4435 15.1937L20.4448 15.1945C21.8264 15.9939 22.9933 17.1165 23.8455 18.4661C24.1404 18.933 24.0009 19.5506 23.5339 19.8455C23.067 20.1404 22.4494 20.0009 22.1545 19.5339C21.4752 18.4582 20.545 17.5633 19.4439 16.926C18.3957 16.3218 17.2077 16.0026 15.9979 16C15.4456 15.9988 14.9988 15.5502 15 14.9979C15 14.997 15 14.996 15 14.9951C15 14.9935 15 14.9919 15 14.9902C15 14.4379 15.4477 13.9902 16 13.9902C17.0609 13.9902 18.0783 13.5688 18.8284 12.8187C19.5786 12.0685 20 11.0511 20 9.99023C20 8.92937 19.5786 7.91195 18.8284 7.16181C18.0783 6.41166 17.0609 5.99023 16 5.99023C15.4477 5.99023 15 5.54252 15 4.99023ZM8.00001 4C6.40871 4 4.88259 4.63214 3.75737 5.75736C2.63215 6.88258 2.00001 8.4087 2.00001 10C2.00001 11.5913 2.63215 13.1174 3.75737 14.2426C3.95069 14.436 4.15584 14.6147 4.37113 14.7782C4.0935 14.9024 3.82166 15.0409 3.55674 15.1936L3.55515 15.1945C2.17368 15.9939 1.00676 17.1165 0.154499 18.466C-0.1404 18.933 -0.000916004 19.5506 0.466045 19.8455C0.933007 20.1404 1.55062 20.0009 1.84552 19.534C2.52486 18.4582 3.45496 17.5633 4.55606 16.926C5.60377 16.3225 6.79103 16.0032 8.00012 16C9.20911 16.003 10.3963 16.3222 11.4438 16.9259C12.545 17.5632 13.4751 18.4582 14.1545 19.534C14.4494 20.0009 15.067 20.1404 15.534 19.8455C16.0009 19.5506 16.1404 18.933 15.8455 18.466C14.9933 17.1165 13.8263 15.9939 12.4449 15.1945L12.4435 15.1937C12.1786 15.0409 11.9067 14.9023 11.629 14.7781C11.8443 14.6147 12.0494 14.4359 12.2426 14.2426C13.3679 13.1174 14 11.5913 14 10C14 8.4087 13.3679 6.88258 12.2426 5.75736C11.1174 4.63214 9.59131 4 8.00001 4ZM8.00443 14C9.0637 13.9988 10.0793 13.5775 10.8284 12.8284C11.5786 12.0783 12 11.0609 12 10C12 8.93913 11.5786 7.92172 10.8284 7.17157C10.0783 6.42143 9.06087 6 8.00001 6C6.93914 6 5.92173 6.42143 5.17158 7.17157C4.42143 7.92172 4.00001 8.93913 4.00001 10C4.00001 11.0609 4.42143 12.0783 5.17158 12.8284C5.92173 13.5786 6.93914 14 8.00001 14L8.00213 14L8.00443 14Z" />
</svg>
