<svg width="24" height="24" viewBox="0 0 24 24" xmlns="http://www.w3.org/2000/svg">
<path fill-rule="evenodd" clip-rule="evenodd" d="M13.156 4.133C12.2196 3.91169 11.2392 3.96543 10.3326 4.28778C9.426 4.61013 8.63175 5.18737 8.04525 5.95016C7.45876 6.71295 7.10496 7.62885 7.02636 8.58783C6.94776 9.54682 7.1477 10.5081 7.60217 11.3562C8.05663 12.2043 8.74629 12.9032 9.58831 13.3688C10.4303 13.8345 11.3889 14.0472 12.3488 13.9813C13.3087 13.9154 14.2293 13.5738 14.9998 12.9974C15.7702 12.4211 16.358 11.6346 16.6923 10.7323C16.8842 10.2145 17.4596 9.95021 17.9775 10.1421C18.4953 10.334 18.7596 10.9094 18.5677 11.4273C18.0995 12.6906 17.2766 13.792 16.1977 14.599C16.1452 14.6383 16.0922 14.6768 16.0387 14.7145C16.6039 14.9214 17.1533 15.1723 17.6813 15.4657C19.4119 16.4263 20.8535 17.8122 21.8575 19.4855C22.1416 19.9591 21.9881 20.5733 21.5145 20.8575C21.0409 21.1416 20.4267 20.9881 20.1425 20.5145C19.3225 19.1478 18.1401 18.0077 16.7107 17.2143L16.7103 17.2141C15.2803 16.4195 13.6557 16 12 16H11.9991C10.3512 15.9986 8.73006 16.4167 7.28837 17.2149L7.28743 17.2154C5.87396 17.996 4.69061 19.1345 3.85608 20.5168C3.57064 20.9896 2.95596 21.1415 2.48316 20.8561C2.01036 20.5706 1.85847 19.956 2.14391 19.4832C3.15962 17.8008 4.59982 16.415 6.32009 15.4649C6.85183 15.1705 7.40381 14.919 7.97076 14.7118C7.08548 14.0867 6.35448 13.2622 5.83931 12.3008C5.20295 11.1133 4.92298 9.76727 5.03304 8.42446C5.1431 7.08165 5.6385 5.79917 6.45974 4.73108C7.28098 3.663 8.39312 2.85472 9.66258 2.40335C10.932 1.95199 12.3048 1.87673 13.616 2.18662C14.1535 2.31364 14.4862 2.85233 14.3592 3.38981C14.2322 3.92729 13.6935 4.26002 13.156 4.133ZM19.75 3C19.75 2.44772 19.3023 2 18.75 2C18.1977 2 17.75 2.44772 17.75 3V4.25H16.5C15.9477 4.25 15.5 4.69772 15.5 5.25C15.5 5.80228 15.9477 6.25 16.5 6.25H17.75V7.5C17.75 8.05228 18.1977 8.5 18.75 8.5C19.3023 8.5 19.75 8.05228 19.75 7.5V6.25H21C21.5523 6.25 22 5.80228 22 5.25C22 4.69772 21.5523 4.25 21 4.25H19.75V3Z" />
</svg>
