<svg width="24" height="24" viewBox="0 0 24 24" xmlns="http://www.w3.org/2000/svg">
<path fill-rule="evenodd" clip-rule="evenodd" d="M12 2C10.1435 2 8.36303 2.7375 7.05028 4.05025C5.73752 5.36301 5.00003 7.14348 5.00003 9C5.00003 10.8565 5.73752 12.637 7.05028 13.9497C7.33289 14.2324 7.63718 14.4883 7.95924 14.716C7.39634 14.9224 6.84825 15.1725 6.32012 15.4649C4.59985 16.415 3.15965 17.8008 2.14394 19.4832C1.8585 19.956 2.01039 20.5706 2.48319 20.8561C2.95599 21.1415 3.57067 20.9896 3.85611 20.5168C4.69064 19.1345 5.87399 17.996 7.28746 17.2154L7.2884 17.2149C8.73009 16.4167 10.3512 15.9986 11.9992 16H12C13.6557 16 15.2803 16.4195 16.7103 17.2141L16.7107 17.2143C18.1401 18.0077 19.3225 19.1478 20.1425 20.5145C20.4267 20.9881 21.0409 21.1416 21.5145 20.8575C21.9881 20.5733 22.1417 19.9591 21.8575 19.4855C20.8535 17.8122 19.412 16.4263 17.6813 15.4657C17.1542 15.1727 16.6057 14.9222 16.0415 14.7155C16.3633 14.488 16.6674 14.2322 16.9498 13.9497C18.2625 12.637 19 10.8565 19 9C19 7.14349 18.2625 5.36301 16.9498 4.05025C15.637 2.7375 13.8565 2 12 2ZM15.5356 12.5355C14.5979 13.4732 13.3261 14 12 14C10.6739 14 9.40217 13.4732 8.46449 12.5355C7.52681 11.5979 7.00003 10.3261 7.00003 9C7.00003 7.67392 7.52681 6.40215 8.46449 5.46447C9.40217 4.52678 10.6739 4 12 4C13.3261 4 14.5979 4.52678 15.5356 5.46447C16.4732 6.40215 17 7.67392 17 9C17 10.3261 16.4732 11.5979 15.5356 12.5355Z" />
</svg>
