<svg width="24" height="24" viewBox="0 0 24 24" xmlns="http://www.w3.org/2000/svg">
    <path fill-rule="evenodd" clip-rule="evenodd" d="M7.96547 4.69244C9.33045 4.03577 10.8745 3.83846 12.3654 4.13496C13.9538 4.45085 15.3835 5.30772 16.4109 6.55956C17.4383 7.81139 17.9999 9.38074 18 11.0002V11.0002C18 12.8276 17.302 14.4891 16.1559 15.7353L13.3855 12H14C14.5523 12 15 11.5523 15 11C15 10.4477 14.5523 10 14 10H12V8C12 7.44772 11.5523 7 11 7C10.6026 7 10.2593 7.23186 10.098 7.56769L7.96547 4.69244ZM7.96543 4.69246L7.96547 4.69244L6.75717 3.06335C8.59347 2.08175 10.7133 1.76723 12.7555 2.17338C14.7977 2.57952 16.6359 3.68121 17.9569 5.29072C19.2779 6.90023 19.9999 8.91798 20 11.0002L19 11.0002H20C20 13.1253 19.2633 15.0792 18.0322 16.6182L21.7071 20.2931C22.0976 20.6836 22.0976 21.3168 21.7071 21.7073C21.3166 22.0979 20.6834 22.0979 20.2929 21.7073L16.6176 18.0321C15.264 19.1135 13.6207 19.7859 11.8824 19.9571C9.81024 20.1613 7.7314 19.6406 6.00008 18.4839C4.26877 17.3271 2.99211 15.6058 2.38762 13.6133C1.78313 11.6208 1.88822 9.48033 2.68498 7.55661C3.48174 5.63289 4.92088 4.04495 6.75717 3.06335L7.96543 4.69246ZM10 10V8C10 7.8452 10.0352 7.69862 10.098 7.5678L7.96543 4.69246C7.87617 4.7354 7.78768 4.7803 7.70002 4.82716C6.27179 5.59063 5.15247 6.82569 4.53276 8.32192C3.91306 9.81815 3.83132 11.483 4.30148 13.0327C4.77164 14.5824 5.7646 15.9212 7.11118 16.8209C8.45775 17.7206 10.0746 18.1256 11.6863 17.9668C13.298 17.808 14.8048 17.0953 15.9499 15.9501L15.9499 15.9501L15.9501 15.9499C16.0202 15.8799 16.0887 15.8084 16.1557 15.7356L16.1851 15.7753L16.1854 15.7751L16.1559 15.7353L16.1557 15.7356L13.3852 12H12V14C12 14.5523 11.5523 15 11 15C10.4477 15 10 14.5523 10 14V12H8C7.44772 12 7 11.5523 7 11C7 10.4477 7.44772 10 8 10H10Z" />
</svg>
