<svg width="16" height="16" viewBox="0 0 16 16" xmlns="http://www.w3.org/2000/svg">
<path fill-rule="evenodd" clip-rule="evenodd" d="M13.3738 1.9594C12.9833 1.56887 12.3501 1.56887 11.9596 1.9594C11.569 2.34992 11.569 2.98309 11.9596 3.37361L13.2929 4.70694C13.6834 5.09747 14.3166 5.09747 14.7071 4.70694C15.0976 4.31642 15.0976 3.68325 14.7071 3.29273L13.3738 1.9594ZM4.04044 1.9594C4.43096 2.34992 4.43096 2.98309 4.04044 3.37361L2.70711 4.70694C2.31658 5.09747 1.68342 5.09747 1.29289 4.70694C0.902369 4.31642 0.902369 3.68325 1.29289 3.29273L2.62623 1.9594C3.01675 1.56887 3.64992 1.56887 4.04044 1.9594ZM3.66667 8.66683C3.66667 6.2736 5.60677 4.3335 8 4.3335C10.3932 4.3335 12.3333 6.2736 12.3333 8.66683C12.3333 11.0601 10.3932 13.0002 8 13.0002C5.60677 13.0002 3.66667 11.0601 3.66667 8.66683ZM8 2.3335C4.5022 2.3335 1.66667 5.16903 1.66667 8.66683C1.66667 12.1646 4.5022 15.0002 8 15.0002C11.4978 15.0002 14.3333 12.1646 14.3333 8.66683C14.3333 5.16903 11.4978 2.3335 8 2.3335ZM9 6C9 5.44772 8.55228 5 8 5C7.44772 5 7 5.44772 7 6V9.33333C7 9.88562 7.44772 10.3333 8 10.3333H10C10.5523 10.3333 11 9.88562 11 9.33333C11 8.78105 10.5523 8.33333 10 8.33333H9V6Z" />
</svg>
