<svg width="16" height="16" viewBox="0 0 16 16" xmlns="http://www.w3.org/2000/svg">
    <path fill-rule="evenodd" clip-rule="evenodd" d="M8 13C5.23858 13 3 10.7614 3 8C3 5.23858 5.23858 3 8 3C10.7614 3 13 5.23858 13 8C13 10.7614 10.7614 13 8 13ZM1 8C1 11.866 4.13401 15 8 15C11.866 15 15 11.866 15 8C15 4.13401 11.866 1 8 1C4.13401 1 1 4.13401 1 8ZM8 4.3335C8.55228 4.3335 9 4.78121 9 5.3335V8.00016C9 8.55245 8.55228 9.00016 8 9.00016C7.44772 9.00016 7 8.55245 7 8.00016V5.3335C7 4.78121 7.44772 4.3335 8 4.3335ZM8 9.6665C7.44772 9.6665 7 10.1142 7 10.6665C7 11.2188 7.44772 11.6665 8 11.6665H8.00667C8.55895 11.6665 9.00667 11.2188 9.00667 10.6665C9.00667 10.1142 8.55895 9.6665 8.00667 9.6665H8Z" />
</svg>
