<svg width="16" height="16" viewBox="0 0 16 16" xmlns="http://www.w3.org/2000/svg">
<path fill-rule="evenodd" clip-rule="evenodd" d="M11.3738 0.626389C10.9833 0.235865 10.3501 0.235865 9.95958 0.626389C9.56906 1.01691 9.56906 1.65008 9.95958 2.0406L10.919 3H6.66667C5.92251 3 5.18564 3.14657 4.49813 3.43135C3.81062 3.71613 3.18593 4.13353 2.65973 4.65973C2.13353 5.18593 1.71613 5.81062 1.43135 6.49813C1.14657 7.18564 1 7.92251 1 8.66667C1 9.41082 1.14657 10.1477 1.43135 10.8352C1.71613 11.5227 2.13353 12.1474 2.65973 12.6736C3.18593 13.1998 3.81062 13.6172 4.49813 13.902C5.18564 14.1868 5.92251 14.3333 6.66667 14.3333H12C12.5523 14.3333 13 13.8856 13 13.3333C13 12.781 12.5523 12.3333 12 12.3333H6.66667C6.18515 12.3333 5.70835 12.2385 5.26349 12.0542C4.81863 11.87 4.41442 11.5999 4.07394 11.2594C3.73346 10.9189 3.46338 10.5147 3.27911 10.0698C3.09484 9.62498 3 9.14818 3 8.66667C3 8.18515 3.09484 7.70835 3.27911 7.26349C3.46338 6.81863 3.73346 6.41442 4.07394 6.07394C4.41442 5.73346 4.81863 5.46338 5.26349 5.27911C5.70835 5.09484 6.18515 5 6.66667 5H10.9193L9.95958 5.95972C9.56906 6.35025 9.56906 6.98341 9.95958 7.37394C10.3501 7.76446 10.9833 7.76446 11.3738 7.37394L14.0405 4.70727C14.2148 4.53296 14.3113 4.3103 14.33 4.08245C14.3449 3.9003 14.3102 3.71482 14.2256 3.54809C14.2033 3.50397 14.1774 3.46116 14.1481 3.42008C14.113 3.37084 14.0735 3.32493 14.0303 3.28289L11.3738 0.626389Z" />
</svg>
