<svg width="16" height="16" viewBox="0 0 16 16" xmlns="http://www.w3.org/2000/svg">
<path fill-rule="evenodd" clip-rule="evenodd" d="M5.37377 2.02693C5.7643 1.63641 5.7643 1.00324 5.37377 0.612717C4.98325 0.222193 4.35008 0.222193 3.95956 0.612717L1.29289 3.27938C1.09592 3.47636 0.998296 3.73506 1.00002 3.99322C1.00001 3.99548 1 3.99774 1 4C1 4.32601 1.15601 4.61559 1.39744 4.79814L3.95956 7.36026C4.35008 7.75079 4.98325 7.75079 5.37377 7.36026C5.7643 6.96974 5.7643 6.33657 5.37377 5.94605L4.42772 5H8.66667C9.14818 5 9.62498 5.09484 10.0698 5.27911C10.5147 5.46338 10.9189 5.73346 11.2594 6.07394C11.5999 6.41442 11.87 6.81863 12.0542 7.26349C12.2385 7.70835 12.3333 8.18515 12.3333 8.66667C12.3333 9.14818 12.2385 9.62498 12.0542 10.0698C11.87 10.5147 11.5999 10.9189 11.2594 11.2594C10.9189 11.5999 10.5147 11.87 10.0698 12.0542C9.62498 12.2385 9.14818 12.3333 8.66667 12.3333H3.33333C2.78105 12.3333 2.33333 12.781 2.33333 13.3333C2.33333 13.8856 2.78105 14.3333 3.33333 14.3333H8.66667C9.41082 14.3333 10.1477 14.1868 10.8352 13.902C11.5227 13.6172 12.1474 13.1998 12.6736 12.6736C13.1998 12.1474 13.6172 11.5227 13.902 10.8352C14.1868 10.1477 14.3333 9.41082 14.3333 8.66667C14.3333 7.92251 14.1868 7.18564 13.902 6.49813C13.6172 5.81061 13.1998 5.18593 12.6736 4.65973C12.1474 4.13353 11.5227 3.71613 10.8352 3.43135C10.1477 3.14657 9.41082 3 8.66667 3H4.4007L5.37377 2.02693Z" />
</svg>
