<svg width="16" height="16" viewBox="0 0 16 16" xmlns="http://www.w3.org/2000/svg">
<path fill-rule="evenodd" clip-rule="evenodd" d="M10.2385 5.09489C9.61923 4.61688 8.84283 4.33252 8.00001 4.33252C5.97497 4.33252 4.33335 5.97414 4.33335 7.99918C4.33335 10.0242 5.97497 11.6658 8.00001 11.6658C8.96206 11.6658 9.83757 11.2953 10.4916 10.6892C10.9526 11.2898 11.5851 11.6655 12.3333 11.6655C13.93 11.6655 15 9.95412 15 7.99884C14.9997 6.47657 14.5033 4.99615 13.5861 3.7816C12.669 2.56706 11.3809 1.68447 9.9171 1.26763C8.45329 0.850807 6.89352 0.922419 5.47406 1.47163C4.0546 2.02085 2.85283 3.01773 2.05079 4.31125C1.24875 5.60478 0.890155 7.12448 1.02934 8.6401C1.16851 10.1557 1.79787 11.5847 2.82206 12.7105C3.84624 13.8364 5.20945 14.5976 6.70523 14.8792C8.20097 15.1607 9.7477 14.9471 11.1111 14.2706C11.6059 14.0252 11.808 13.4251 11.5625 12.9304C11.3171 12.4356 10.717 12.2336 10.2223 12.479C9.24838 12.9622 8.14357 13.1148 7.07516 12.9137C6.00672 12.7126 5.03301 12.1688 4.30147 11.3647C3.56992 10.5605 3.12037 9.53981 3.02096 8.45721C2.92154 7.37462 3.17768 6.28913 3.75057 5.36517C4.32345 4.44124 5.18186 3.72918 6.19576 3.33687C7.20965 2.94459 8.32378 2.89343 9.36936 3.19117C10.4149 3.48891 11.335 4.11932 11.9901 4.98684C12.6452 5.8544 12.9998 6.91186 13 7.99907C13 8.53508 12.8709 9.02317 12.6637 9.35454C12.5215 9.58197 12.3981 9.66552 12.3333 9.66552C12.2686 9.66552 12.1451 9.58199 12.0029 9.35457C11.7958 9.0232 11.6667 8.5351 11.6667 7.99884V5.99884C11.6667 5.44656 11.219 4.99884 10.6667 4.99884C10.5135 4.99884 10.3683 5.0333 10.2385 5.09489ZM9.66671 8.00223C9.66506 8.92129 8.91949 9.66582 8.00001 9.66582C7.07953 9.66582 6.33335 8.91965 6.33335 7.99918C6.33335 7.0787 7.07954 6.33252 8.00001 6.33252C8.9193 6.33252 9.66476 7.07677 9.66671 7.99558V7.99884C9.66671 7.99997 9.66671 8.0011 9.66671 8.00223Z" />
</svg>
