<svg width="16" height="16" viewBox="0 0 16 16" xmlns="http://www.w3.org/2000/svg">
<path fill-rule="evenodd" clip-rule="evenodd" d="M6.66667 1C5.5174 1 4.4152 1.45655 3.60254 2.2692C2.78988 3.08186 2.33334 4.18406 2.33334 5.33333V9C2.33334 10.5913 2.96548 12.1174 4.0907 13.2426C5.21591 14.3679 6.74204 15 8.33334 15C9.92463 15 11.4508 14.3679 12.576 13.2426C13.7012 12.1174 14.3333 10.5913 14.3333 9V3.33333C14.3333 2.78105 13.8856 2.33333 13.3333 2.33333C12.7811 2.33333 12.3333 2.78105 12.3333 3.33333V9C12.3333 10.0609 11.9119 11.0783 11.1618 11.8284C10.4116 12.5786 9.3942 13 8.33334 13C7.27247 13 6.25505 12.5786 5.50491 11.8284C4.75476 11.0783 4.33334 10.0609 4.33334 9V5.33333C4.33334 4.71449 4.57917 4.121 5.01675 3.68342C5.45434 3.24583 6.04783 3 6.66667 3C7.28551 3 7.879 3.24583 8.31659 3.68342C8.75417 4.121 9 4.71449 9 5.33333V9C9 9.17681 8.92976 9.34638 8.80474 9.47141C8.67972 9.59643 8.51015 9.66667 8.33334 9.66667C8.15653 9.66667 7.98696 9.59643 7.86193 9.47141C7.73691 9.34638 7.66667 9.17681 7.66667 9V6C7.66667 5.44772 7.21895 5 6.66667 5C6.11438 5 5.66667 5.44772 5.66667 6V9C5.66667 9.70724 5.94762 10.3855 6.44772 10.8856C6.94781 11.3857 7.62609 11.6667 8.33334 11.6667C9.04058 11.6667 9.71886 11.3857 10.219 10.8856C10.7191 10.3855 11 9.70724 11 9V5.33333C11 4.18406 10.5435 3.08186 9.7308 2.2692C8.91814 1.45655 7.81594 1 6.66667 1Z" />
</svg>
