<svg width="16" height="16" viewBox="0 0 16 16" xmlns="http://www.w3.org/2000/svg">
<path fill-rule="evenodd" clip-rule="evenodd" d="M5.64298 3.59042C6.66317 3.04511 7.84086 2.87041 8.97541 3.09608C10.11 3.32174 11.1312 3.93382 11.865 4.82801C12.5989 5.72221 13 6.84319 13 7.99997L14 7.99996L13 8.00126C13.0009 8.65759 12.872 9.30761 12.6208 9.91399C12.4983 10.2097 12.3479 10.4922 12.1721 10.7578L5.24301 3.82879C5.37211 3.74347 5.50554 3.66389 5.64298 3.59042ZM3.05841 3.04212C3.05567 3.0448 3.05294 3.0475 3.05022 3.05022C3.04749 3.05294 3.04479 3.05568 3.0421 3.05843C2.40051 3.70215 1.88568 4.46938 1.53283 5.32127C0.913086 6.81749 0.831311 8.4823 1.30143 10.0321C1.77156 11.5818 2.76449 12.9206 4.11105 13.8203C5.45761 14.7201 7.07448 15.125 8.68617 14.9663C10.2957 14.8078 11.8005 14.0968 12.9451 12.9544C12.9467 12.9529 12.9482 12.9513 12.9498 12.9498C12.951 12.9486 12.9522 12.9473 12.9534 12.9461C13.6025 12.2975 14.1174 11.5272 14.4686 10.6793C14.8205 9.82971 15.0011 8.91893 15 7.9993C14.9998 6.38005 14.4383 4.81092 13.411 3.55921C12.3836 2.30734 10.9539 1.45044 9.36558 1.1345C7.77721 0.81857 6.12843 1.06316 4.70018 1.82659C4.09201 2.15167 3.53984 2.56226 3.05841 3.04212ZM10.757 12.1712C10.0823 12.6172 9.30497 12.8957 8.49012 12.9759C7.33891 13.0893 6.18401 12.8 5.22218 12.1574C4.26035 11.5147 3.55111 10.5584 3.21531 9.45147C2.87951 8.34451 2.93792 7.15535 3.38059 6.08663C3.50346 5.78998 3.65384 5.5077 3.82879 5.24301L10.757 12.1712Z" />
</svg>
