<svg width="16" height="16" viewBox="0 0 16 16" xmlns="http://www.w3.org/2000/svg">
<path fill-rule="evenodd" clip-rule="evenodd" d="M4.66669 2.3335C4.1144 2.3335 3.66669 2.78121 3.66669 3.3335V8.00016V12.6668C3.66669 13.2191 4.1144 13.6668 4.66669 13.6668H9.00002C9.43776 13.6668 9.87121 13.5806 10.2756 13.4131C10.68 13.2456 11.0475 13 11.357 12.6905C11.6666 12.381 11.9121 12.0135 12.0796 11.6091C12.2471 11.2047 12.3334 10.7712 12.3334 10.3335C12.3334 9.89576 12.2471 9.4623 12.0796 9.05789C11.9121 8.65347 11.6666 8.286 11.357 7.97647C11.2453 7.8647 11.1259 7.76127 11 7.66684C11.4302 7.09324 11.6667 6.39222 11.6667 5.66683C11.6667 4.78277 11.3155 3.93493 10.6904 3.30981C10.0653 2.68469 9.21741 2.3335 8.33335 2.3335H4.66669ZM9.27616 6.60964C9.02611 6.85969 8.68698 7.00016 8.33335 7.00016H5.66669V4.3335H8.33335C8.68698 4.3335 9.02611 4.47397 9.27616 4.72402C9.52621 4.97407 9.66669 5.31321 9.66669 5.66683C9.66669 6.02045 9.52621 6.35959 9.27616 6.60964ZM9.51026 9.10166C9.3485 9.03465 9.17512 9.00016 9.00002 9.00016H8.33335H5.66669V11.6668H9.00002C9.17511 11.6668 9.3485 11.6323 9.51026 11.5653C9.67203 11.4983 9.81902 11.4001 9.94283 11.2763C10.0666 11.1525 10.1649 11.0055 10.2319 10.8437C10.2989 10.682 10.3334 10.5086 10.3334 10.3335C10.3334 10.1584 10.2989 9.98502 10.2319 9.82325C10.1649 9.66148 10.0666 9.5145 9.94283 9.39069C9.81902 9.26688 9.67203 9.16866 9.51026 9.10166Z" />
</svg>
