<svg width="16" height="16" viewBox="0 0 16 16" xmlns="http://www.w3.org/2000/svg">
<path fill-rule="evenodd" clip-rule="evenodd" d="M3.33334 1C2.78105 1 2.33334 1.44772 2.33334 2V14.6667C2.33334 15.0413 2.54268 15.3844 2.87575 15.5558C3.20883 15.7272 3.60976 15.6981 3.91457 15.4804L8 12.5622L12.0854 15.4804C12.3902 15.6981 12.7912 15.7272 13.1243 15.5558C13.4573 15.3844 13.6667 15.0413 13.6667 14.6667V2C13.6667 1.44772 13.219 1 12.6667 1H3.33334ZM7.41876 10.5196L4.33334 12.7235V3H11.6667V12.7235L8.58124 10.5196C8.23354 10.2712 7.76646 10.2712 7.41876 10.5196Z" />
</svg>
