<svg width="16" height="16" viewBox="0 0 16 16" xmlns="http://www.w3.org/2000/svg">
<path fill-rule="evenodd" clip-rule="evenodd" d="M6.33331 1.3335C6.33331 0.781211 5.8856 0.333496 5.33331 0.333496C4.78103 0.333496 4.33331 0.781211 4.33331 1.3335V1.6665H2C1.44772 1.6665 1 2.11422 1 2.6665V6.6665V13.3332C1 13.8855 1.44772 14.3332 2 14.3332H14C14.5523 14.3332 15 13.8855 15 13.3332V6.6665V2.6665C15 2.11422 14.5523 1.6665 14 1.6665H11.6667V1.3335C11.6667 0.781211 11.219 0.333496 10.6667 0.333496C10.1144 0.333496 9.66669 0.781211 9.66669 1.3335V1.6665H6.33331V1.3335ZM13 5.6665V3.6665H11.6667V4.00016C11.6667 4.55245 11.219 5.00016 10.6667 5.00016C10.1144 5.00016 9.66669 4.55245 9.66669 4.00016V3.6665H6.33331V4.00016C6.33331 4.55245 5.8856 5.00016 5.33331 5.00016C4.78103 5.00016 4.33331 4.55245 4.33331 4.00016V3.6665H3V5.6665H13ZM3 7.6665H13V12.3332H3V7.6665Z" />
</svg>
