<svg width="16" height="16" viewBox="0 0 16 16" xmlns="http://www.w3.org/2000/svg">
<path fill-rule="evenodd" clip-rule="evenodd" d="M0.333313 3.3335C0.333313 2.78121 0.781028 2.3335 1.33331 2.3335H10.6666C11.2189 2.3335 11.6666 2.78121 11.6666 3.3335V5.46468L14.112 3.83445C14.4188 3.62988 14.8134 3.61081 15.1385 3.78483C15.4637 3.95885 15.6667 4.29771 15.6667 4.6665V11.3332C15.6667 11.702 15.4637 12.0408 15.1385 12.2148C14.8134 12.3889 14.4188 12.3698 14.112 12.1652L11.6666 10.535V12.6668C11.6666 13.2191 11.2189 13.6668 10.6666 13.6668H1.33331C0.781028 13.6668 0.333313 13.2191 0.333313 12.6668V3.3335ZM11.6666 7.86838V8.13129L13.6667 9.46465V6.53502L11.6666 7.86838ZM9.66665 4.3335V7.32257V7.34561V8.65406V8.67711V11.6668H2.33331V4.3335H9.66665ZM4 5C3.44772 5 3 5.44772 3 6C3 6.55228 3.44772 7 4 7H4.00667C4.55895 7 5.00667 6.55228 5.00667 6C5.00667 5.44772 4.55895 5 4.00667 5H4Z" />
</svg>
