<svg width="16" height="16" viewBox="0 0 16 16" fill="none" xmlns="http://www.w3.org/2000/svg">
<path d="M15.2402 7.71516C15.1092 7.5362 11.9873 3.33331 8.00002 3.33331C4.01276 3.33331 0.890702 7.5362 0.759819 7.71499C0.635725 7.88476 0.635725 8.11503 0.759819 8.2848C0.890702 8.46376 4.01276 12.6666 8.00002 12.6666C11.9873 12.6666 15.1092 8.46373 15.2402 8.28495C15.3645 8.1152 15.3645 7.88476 15.2402 7.71516ZM8.00002 11.7011C5.06298 11.7011 2.51919 8.91159 1.76618 7.99965C2.51822 7.08691 5.05668 4.29883 8.00002 4.29883C10.9369 4.29883 13.4805 7.08788 14.2339 8.00031C13.4818 8.91302 10.9434 11.7011 8.00002 11.7011Z" fill="currentColor"/>
<path d="M6.66675 8L8.00008 6L9.33341 8L8.00008 10L6.66675 8Z" stroke="currentColor" stroke-width="1.2" stroke-linejoin="round"/>
</svg>
