<svg width="16" height="16" viewBox="0 0 16 16" xmlns="http://www.w3.org/2000/svg">
<path fill-rule="evenodd" clip-rule="evenodd" d="M1.33331 1C0.781028 1 0.333313 1.44772 0.333313 2V11.3333C0.333313 11.7378 0.576955 12.1024 0.95063 12.2572C1.3243 12.412 1.75442 12.3264 2.04042 12.0404L3 11.0809V11.9998C3 12.5521 3.44772 12.9998 4 12.9998H11.5858L13.2929 14.7069C13.5789 14.9929 14.009 15.0785 14.3827 14.9237C14.7564 14.7689 15 14.4043 15 13.9998V4.6665C15 4.11422 14.5523 3.6665 14 3.6665H12.3333V2C12.3333 1.44772 11.8856 1 11.3333 1H1.33331ZM12.3333 5.6665V9.33333C12.3333 9.88562 11.8856 10.3333 11.3333 10.3333H5V10.9998H12C12.2652 10.9998 12.5196 11.1052 12.7071 11.2927L13 11.5856V5.6665H12.3333ZM4.01819 8.33333H10.3333V3H2.33331V8.91912L2.62621 8.62623C2.81374 8.43869 3.0681 8.33333 3.33331 8.33333H3.98181C3.98786 8.33323 3.99392 8.33317 4 8.33317C4.00608 8.33317 4.01214 8.33323 4.01819 8.33333Z" />
</svg>
