<svg width="16" height="16" viewBox="0 0 16 16" xmlns="http://www.w3.org/2000/svg">
<path fill-rule="evenodd" clip-rule="evenodd" d="M8 3C5.23858 3 3 5.23858 3 8C3 10.7614 5.23858 13 8 13C10.7614 13 13 10.7614 13 8C13 5.23858 10.7614 3 8 3ZM1 8C1 4.13401 4.13401 1 8 1C11.866 1 15 4.13401 15 8C15 11.866 11.866 15 8 15C4.13401 15 1 11.866 1 8ZM8 7C8.55228 7 9 7.44772 9 8V10.6667C9 11.219 8.55228 11.6667 8 11.6667C7.44772 11.6667 7 11.219 7 10.6667V8C7 7.44772 7.44772 7 8 7ZM8 4.3335C7.44772 4.3335 7 4.78121 7 5.3335C7 5.88578 7.44772 6.3335 8 6.3335H8.00667C8.55895 6.3335 9.00667 5.88578 9.00667 5.3335C9.00667 4.78121 8.55895 4.3335 8.00667 4.3335H8Z" />
</svg>
