<svg width="16" height="16" viewBox="0 0 16 16" xmlns="http://www.w3.org/2000/svg">
<path fill-rule="evenodd" clip-rule="evenodd" d="M8 3C5.23858 3 3 5.23858 3 8C3 10.7614 5.23858 13 8 13C10.7614 13 13 10.7614 13 8C13 5.23858 10.7614 3 8 3ZM1 8C1 4.13401 4.13401 1 8 1C11.866 1 15 4.13401 15 8C15 11.866 11.866 15 8 15C4.13401 15 1 11.866 1 8ZM8 4.3335C8.55228 4.3335 9 4.78121 9 5.3335V7H10.6666C11.2189 7 11.6666 7.44772 11.6666 8C11.6666 8.55228 11.2189 9 10.6666 9H9V10.6668C9 11.2191 8.55228 11.6668 8 11.6668C7.44772 11.6668 7 11.2191 7 10.6668V9H5.33331C4.78103 9 4.33331 8.55228 4.33331 8C4.33331 7.44772 4.78103 7 5.33331 7H7V5.3335C7 4.78121 7.44772 4.3335 8 4.3335Z" />
</svg>
