<svg width="16" height="16" viewBox="0 0 16 16" xmlns="http://www.w3.org/2000/svg">
<path fill-rule="evenodd" clip-rule="evenodd" d="M5.37379 3.9594C4.98327 3.56887 4.3501 3.56887 3.95958 3.9594C3.56906 4.34992 3.56906 4.98309 3.95958 5.37361L6.58581 7.99984L3.95958 10.6261C3.56906 11.0166 3.56906 11.6498 3.95958 12.0403C4.3501 12.4308 4.98327 12.4308 5.37379 12.0403L8.00002 9.41405L10.6262 12.0403C11.0168 12.4308 11.6499 12.4308 12.0405 12.0403C12.431 11.6498 12.431 11.0166 12.0405 10.6261L9.41423 7.99984L12.0405 5.37361C12.431 4.98309 12.431 4.34992 12.0405 3.9594C11.6499 3.56887 11.0168 3.56887 10.6262 3.9594L8.00002 6.58562L5.37379 3.9594Z" />
</svg>
