<svg width="16" height="16" viewBox="0 0 16 16" xmlns="http://www.w3.org/2000/svg">
<path fill-rule="evenodd" clip-rule="evenodd" d="M10.3035 2.90928C10.4374 2.37348 10.1117 1.83055 9.57589 1.6966C9.04009 1.56265 8.49716 1.88841 8.36321 2.4242L5.69654 13.0909C5.5626 13.6267 5.88836 14.1696 6.42415 14.3035C6.95995 14.4375 7.50288 14.1117 7.63683 13.5759L10.3035 2.90928ZM5.37377 4.62663C5.7643 5.01715 5.7643 5.65032 5.37377 6.04084L3.41421 8.0004L5.37377 9.95996C5.7643 10.3505 5.7643 10.9836 5.37377 11.3742C4.98325 11.7647 4.35008 11.7647 3.95956 11.3742L1.29289 8.70751C0.902369 8.31698 0.902369 7.68382 1.29289 7.29329L3.95956 4.62663C4.35008 4.2361 4.98325 4.2361 5.37377 4.62663ZM10.6262 4.62663C11.0167 4.2361 11.6499 4.2361 12.0404 4.62663L14.7071 7.29329C14.8946 7.48083 15 7.73518 15 8.0004C15 8.26562 14.8946 8.51997 14.7071 8.70751L12.0404 11.3742C11.6499 11.7647 11.0167 11.7647 10.6262 11.3742C10.2357 10.9836 10.2357 10.3505 10.6262 9.95996L12.5858 8.0004L10.6262 6.04084C10.2357 5.65032 10.2357 5.01715 10.6262 4.62663Z" />
</svg>
