<svg width="16" height="16" viewBox="0 0 16 16" xmlns="http://www.w3.org/2000/svg">
<path fill-rule="evenodd" clip-rule="evenodd" d="M6.33002 3.33492C6.33002 4.25448 7.07546 4.99992 7.99502 4.99992C8.91457 4.99992 9.66002 4.25448 9.66002 3.33492C9.66002 2.41537 8.91457 1.66992 7.99502 1.66992C7.07546 1.66992 6.33002 2.41537 6.33002 3.33492ZM6.33002 7.99508C6.33002 8.91463 7.07546 9.66008 7.99502 9.66008C8.91457 9.66008 9.66002 8.91463 9.66002 7.99508C9.66002 7.07552 8.91457 6.33008 7.99502 6.33008C7.07546 6.33008 6.33002 7.07552 6.33002 7.99508ZM7.99502 14.33C7.07546 14.33 6.33002 13.5846 6.33002 12.665C6.33002 11.7454 7.07546 11 7.99502 11C8.91457 11 9.66002 11.7454 9.66002 12.665C9.66002 13.5846 8.91457 14.33 7.99502 14.33Z" />
</svg>
