<svg width="16" height="16" viewBox="0 0 16 16" xmlns="http://www.w3.org/2000/svg">
<path fill-rule="evenodd" clip-rule="evenodd" d="M3.33501 9.66008C4.25457 9.66008 5.00001 8.91463 5.00001 7.99508C5.00001 7.07552 4.25457 6.33008 3.33501 6.33008C2.41546 6.33008 1.67001 7.07552 1.67001 7.99508C1.67001 8.91463 2.41546 9.66008 3.33501 9.66008ZM7.99499 9.66008C8.91454 9.66008 9.65999 8.91463 9.65999 7.99508C9.65999 7.07552 8.91454 6.33008 7.99499 6.33008C7.07543 6.33008 6.32999 7.07552 6.32999 7.99508C6.32999 8.91463 7.07543 9.66008 7.99499 9.66008ZM14.33 7.99508C14.33 8.91463 13.5846 9.66008 12.665 9.66008C11.7454 9.66008 11 8.91463 11 7.99508C11 7.07552 11.7454 6.33008 12.665 6.33008C13.5846 6.33008 14.33 7.07552 14.33 7.99508Z" />
</svg>
