<svg width="16" height="16" viewBox="0 0 16 16" xmlns="http://www.w3.org/2000/svg">
<path fill-rule="evenodd" clip-rule="evenodd" d="M8 1C8.55228 1 9 1.44772 9 2V8.91912L10.6262 7.29289C11.0168 6.90237 11.6499 6.90237 12.0404 7.29289C12.431 7.68342 12.431 8.31658 12.0404 8.70711L8.70711 12.0404C8.61074 12.1368 8.49958 12.2094 8.38094 12.2582C8.26353 12.3066 8.13489 12.3333 8 12.3333C7.86333 12.3333 7.73307 12.3059 7.61441 12.2563C7.50381 12.2101 7.39983 12.1432 7.30839 12.0556L7.29102 12.0386L3.95956 8.70711C3.56904 8.31658 3.56904 7.68342 3.95956 7.29289C4.35009 6.90237 4.98325 6.90237 5.37378 7.29289L7 8.91912V2C7 1.44772 7.44772 1 8 1ZM3.33333 13C2.78104 13 2.33333 13.4477 2.33333 14C2.33333 14.5523 2.78104 15 3.33333 15H12.6667C13.2189 15 13.6667 14.5523 13.6667 14C13.6667 13.4477 13.2189 13 12.6667 13H3.33333Z" />
</svg>
