<svg width="16" height="16" viewBox="0 0 16 16" xmlns="http://www.w3.org/2000/svg">
<path fill-rule="evenodd" clip-rule="evenodd" d="M10.6262 1.9594C11.0168 1.56887 11.6499 1.56887 12.0404 1.9594L14.0404 3.9594C14.431 4.34992 14.431 4.98309 14.0404 5.37361L12.0404 7.37361L7.08056 12.3335H13.3333C13.8856 12.3335 14.3333 12.7812 14.3333 13.3335C14.3333 13.8858 13.8856 14.3335 13.3333 14.3335H4.66667C4.65805 14.3335 4.64945 14.3334 4.64088 14.3332H2.66667C2.11439 14.3332 1.66667 13.8855 1.66667 13.3332V11.3332C1.66667 11.068 1.77203 10.8136 1.95956 10.6261L8.62359 3.96203C8.62447 3.96115 8.62534 3.96028 8.62622 3.9594C8.6271 3.95852 8.62798 3.95764 8.62886 3.95677L10.6262 1.9594ZM9.33333 6.08072L3.66667 11.7474V12.3332H4.25246L9.91912 6.66651L9.33333 6.08072ZM11.3333 5.2523L10.7475 4.66651L11.3333 4.08072L11.9191 4.6665L11.3333 5.2523Z" />
</svg>
