<svg width="16" height="16" viewBox="0 0 16 16" xmlns="http://www.w3.org/2000/svg">
<path fill-rule="evenodd" clip-rule="evenodd" d="M8 1C6.14348 1 4.36301 1.7375 3.05025 3.05025C1.7375 4.36301 1 6.14348 1 8C1 9.85652 1.7375 11.637 3.05025 12.9497C4.36301 14.2625 6.14348 15 8 15C8.91925 15 9.8295 14.8189 10.6788 14.4672C11.5281 14.1154 12.2997 13.5998 12.9497 12.9497C13.5998 12.2997 14.1154 11.5281 14.4672 10.6788C14.8189 9.8295 15 8.91925 15 8C15 7.08075 14.8189 6.1705 14.4672 5.32122C14.1154 4.47194 13.5998 3.70026 12.9497 3.05025C12.2997 2.40024 11.5281 1.88463 10.6788 1.53284C9.8295 1.18106 8.91925 1 8 1ZM4.46447 4.46447C5.40215 3.52678 6.67392 3 8 3C8.65661 3 9.30679 3.12933 9.91342 3.3806C10.52 3.63188 11.0712 4.00017 11.5355 4.46447C11.9998 4.92876 12.3681 5.47996 12.6194 6.08658C12.8707 6.69321 13 7.34339 13 8C13 8.65661 12.8707 9.30679 12.6194 9.91342C12.3681 10.52 11.9998 11.0712 11.5355 11.5355C11.0712 11.9998 10.52 12.3681 9.91342 12.6194C9.30679 12.8707 8.65661 13 8 13C6.67392 13 5.40215 12.4732 4.46447 11.5355C3.52678 10.5979 3 9.32608 3 8C3 6.67392 3.52678 5.40215 4.46447 4.46447ZM6 5.6665C5.44772 5.6665 5 6.11422 5 6.6665C5 7.21879 5.44772 7.6665 6 7.6665H6.00667C6.55895 7.6665 7.00667 7.21879 7.00667 6.6665C7.00667 6.11422 6.55895 5.6665 6.00667 5.6665H6ZM9 6.6665C9 6.11422 9.44771 5.6665 10 5.6665H10.0067C10.559 5.6665 11.0067 6.11422 11.0067 6.6665C11.0067 7.21879 10.559 7.6665 10.0067 7.6665H10C9.44771 7.6665 9 7.21879 9 6.6665ZM7.04761 9.30015C6.6611 8.90566 6.02796 8.8992 5.63347 9.28571C5.23899 9.67223 5.23252 10.3054 5.61904 10.6999C5.9294 11.0166 6.29985 11.2683 6.70869 11.4401C7.11752 11.6119 7.55653 11.7003 8 11.7003C8.44346 11.7003 8.88247 11.6119 9.2913 11.4401C9.70014 11.2683 10.0706 11.0166 10.3809 10.6999C10.7675 10.3054 10.761 9.67223 10.3665 9.28571C9.97203 8.8992 9.33889 8.90566 8.95238 9.30015C8.82823 9.42685 8.68005 9.52751 8.51652 9.59623C8.35298 9.66494 8.17738 9.70034 8 9.70034C7.82261 9.70034 7.64701 9.66494 7.48347 9.59623C7.31994 9.52751 7.17176 9.42685 7.04761 9.30015Z" />
</svg>
