<svg width="16" height="16" viewBox="0 0 16 16" xmlns="http://www.w3.org/2000/svg">
<path fill-rule="evenodd" clip-rule="evenodd" d="M2.66666 1C2.11437 1 1.66666 1.44772 1.66666 2V14C1.66666 14.5523 2.11437 15 2.66666 15H13.3333C13.8856 15 14.3333 14.5523 14.3333 14V5.33796C14.3333 5.33642 14.3333 5.33488 14.3333 5.33333C14.3333 5.05578 14.2203 4.80464 14.0377 4.62347L10.7099 1.29568C10.5287 1.11308 10.2776 1 10 1C10 1 9.99999 1 9.99999 1H2.66666ZM9 3H3.66666V13H12.3333V6.33333H10C9.44772 6.33333 9 5.88562 9 5.33333V3Z" />
</svg>
