<svg width="16" height="16" viewBox="0 0 16 16" xmlns="http://www.w3.org/2000/svg">
<path fill-rule="evenodd" clip-rule="evenodd" d="M5 2.3335C4.58885 2.3335 4.2196 2.58515 4.06926 2.96782L1.72026 8.9466C1.71431 8.96077 1.70868 8.97511 1.70337 8.9896L0.402563 12.3012C0.200644 12.8153 0.453677 13.3957 0.967727 13.5976C1.48178 13.7995 2.06218 13.5465 2.2641 13.0324L3.32425 10.3335H7.34242L8.40256 13.0324C8.60448 13.5465 9.18489 13.7995 9.69894 13.5976C10.1335 13.4269 10.3815 12.9857 10.3259 12.5428C10.3942 12.6281 10.4674 12.7099 10.5453 12.7878C11.108 13.3504 11.871 13.6665 12.6667 13.6665C13.1184 13.6665 13.5596 13.5646 13.9596 13.3736C14.1405 13.5546 14.3905 13.6665 14.6667 13.6665C15.219 13.6665 15.6667 13.2188 15.6667 12.6665V10.6665V8.6665C15.6667 8.11422 15.219 7.6665 14.6667 7.6665C14.3905 7.6665 14.1405 7.77843 13.9596 7.9594C13.5596 7.76838 13.1184 7.6665 12.6667 7.6665C11.871 7.6665 11.108 7.98257 10.5453 8.54518C9.98274 9.10779 9.66667 9.87085 9.66667 10.6665C9.66667 10.7065 9.66747 10.7465 9.66906 10.7863L8.96329 8.9896C8.95799 8.97511 8.95236 8.96078 8.94641 8.94661L6.59741 2.96782C6.44706 2.58515 6.07781 2.3335 5.66667 2.3335H5ZM4.10997 8.3335L5.33333 5.21973L6.5567 8.3335H4.10997ZM11.9596 9.9594C12.1471 9.77186 12.4015 9.6665 12.6667 9.6665C12.9319 9.6665 13.1862 9.77186 13.3738 9.9594C13.5613 10.1469 13.6667 10.4013 13.6667 10.6665C13.6667 10.9317 13.5613 11.1861 13.3738 11.3736C13.1862 11.5611 12.9319 11.6665 12.6667 11.6665C12.4015 11.6665 12.1471 11.5611 11.9596 11.3736C11.772 11.1861 11.6667 10.9317 11.6667 10.6665C11.6667 10.4013 11.772 10.1469 11.9596 9.9594Z" />
</svg>
