<svg width="16" height="16" viewBox="0 0 16 16" xmlns="http://www.w3.org/2000/svg">
<path fill-rule="evenodd" clip-rule="evenodd" d="M11.6589 2.79064C11.7275 2.24262 11.3387 1.74283 10.7907 1.67433C10.2427 1.60583 9.74289 1.99455 9.67439 2.54257L9.3672 5.00011H7.38276L7.65895 2.79064C7.72745 2.24262 7.33872 1.74283 6.7907 1.67433C6.24268 1.60583 5.74289 1.99455 5.67439 2.54257L5.3672 5.00011H3.33334C2.78105 5.00011 2.33334 5.44782 2.33334 6.00011C2.33334 6.55239 2.78105 7.00011 3.33334 7.00011H5.1172L4.8672 9.0001H3.33334C2.78105 9.0001 2.33334 9.44782 2.33334 10.0001C2.33334 10.5524 2.78105 11.0001 3.33334 11.0001H4.6172L4.34106 13.2092C4.27256 13.7573 4.66128 14.2571 5.2093 14.3256C5.75732 14.3941 6.25711 14.0053 6.32561 13.4573L6.63276 11.0001H8.6172L8.34106 13.2092C8.27256 13.7573 8.66128 14.2571 9.2093 14.3256C9.75732 14.3941 10.2571 14.0053 10.3256 13.4573L10.6328 11.0001H12.6667C13.219 11.0001 13.6667 10.5524 13.6667 10.0001C13.6667 9.44782 13.219 9.0001 12.6667 9.0001H10.8828L11.1328 7.00011H12.6667C13.219 7.00011 13.6667 6.55239 13.6667 6.00011C13.6667 5.44782 13.219 5.00011 12.6667 5.00011H11.3828L11.6589 2.79064ZM8.8672 9.0001L9.1172 7.00011H7.13276L6.88276 9.0001H8.8672Z" />
</svg>
