<svg width="16" height="16" viewBox="0 0 16 16" xmlns="http://www.w3.org/2000/svg">
<path fill-rule="evenodd" clip-rule="evenodd" d="M1 2.6665C1 2.11422 1.44772 1.6665 2 1.6665H14C14.5523 1.6665 15 2.11422 15 2.6665V11.6657C15 11.6663 15 11.667 15 11.6676V13.3332C15 13.8855 14.5523 14.3332 14 14.3332H3.01809C3.00603 14.3334 2.99397 14.3334 2.98191 14.3332H2C1.44772 14.3332 1 13.8855 1 13.3332V2.6665ZM5.41438 12.3332H13V12.0809L9.33333 8.41421L5.41438 12.3332ZM13 9.25245L10.0404 6.29289C9.64992 5.90237 9.01675 5.90237 8.62623 6.29289L3 11.9191V3.6665H13V9.25245ZM5.33332 6.3335C5.51742 6.3335 5.66666 6.18426 5.66666 6.00016C5.66666 5.81607 5.51742 5.66683 5.33332 5.66683C5.14923 5.66683 4.99999 5.81607 4.99999 6.00016C4.99999 6.18426 5.14923 6.3335 5.33332 6.3335ZM3.66666 6.00016C3.66666 5.07969 4.41285 4.3335 5.33332 4.3335C6.2538 4.3335 6.99999 5.07969 6.99999 6.00016C6.99999 6.92064 6.2538 7.66683 5.33332 7.66683C4.41285 7.66683 3.66666 6.92064 3.66666 6.00016Z" />
</svg>
