<svg width="16" height="16" viewBox="0 0 16 16" xmlns="http://www.w3.org/2000/svg">
<path fill-rule="evenodd" clip-rule="evenodd" d="M11.6667 3.33362C11.6667 2.78134 11.2189 2.33362 10.6667 2.33362H8.68136C8.6707 2.33345 8.66006 2.33345 8.64946 2.33362H6.66666C6.11438 2.33362 5.66666 2.78134 5.66666 3.33362C5.66666 3.88591 6.11438 4.33362 6.66666 4.33362H7.51365L6.46603 11.667H5.33333C4.78104 11.667 4.33333 12.1147 4.33333 12.667C4.33333 13.2192 4.78104 13.667 5.33333 13.667H7.31864C7.32929 13.6671 7.33992 13.6671 7.35052 13.667H9.33333C9.88561 13.667 10.3333 13.2192 10.3333 12.667C10.3333 12.1147 9.88561 11.667 9.33333 11.667H8.48634L9.53396 4.33362H10.6667C11.2189 4.33362 11.6667 3.88591 11.6667 3.33362Z" />
</svg>
