<svg width="16" height="16" viewBox="0 0 16 16" xmlns="http://www.w3.org/2000/svg">
<path fill-rule="evenodd" clip-rule="evenodd" d="M13.2983 3.37103C13.6874 2.97909 13.6851 2.34593 13.2932 1.95683C12.9013 1.56773 12.2681 1.57003 11.879 1.96197L11.1893 2.65674C11.1853 2.66055 11.1814 2.66439 11.1775 2.66828C11.17 2.67565 11.1627 2.68311 11.1556 2.69065L6.72561 7.15298C6.16596 6.82967 5.51674 6.64453 4.82333 6.64453C2.70483 6.64453 1 8.37249 1 10.4885C1 12.6051 2.70468 14.3332 4.82333 14.3332C6.9425 14.3332 8.64733 12.6052 8.64733 10.4885C8.64733 9.79068 8.46186 9.13509 8.13728 8.56977L9.76452 6.93065L11.1722 8.349C11.5613 8.741 12.1944 8.74338 12.5864 8.35433C12.9784 7.96528 12.9808 7.33211 12.5918 6.94012L11.1736 5.51127L11.8822 4.79749L13.2904 6.21581C13.6795 6.60775 14.3126 6.61003 14.7046 6.22092C15.0965 5.8318 15.0988 5.19864 14.7097 4.80671L13.2913 3.37811L13.2983 3.37103ZM3 10.4885C3 9.46324 3.82317 8.64453 4.82333 8.64453C5.82381 8.64453 6.64733 9.46355 6.64733 10.4885C6.64733 11.5145 5.82417 12.3332 4.82333 12.3332C3.82332 12.3332 3 11.5146 3 10.4885Z" />
</svg>
