<svg width="16" height="16" viewBox="0 0 16 16" xmlns="http://www.w3.org/2000/svg">
<path fill-rule="evenodd" clip-rule="evenodd" d="M9.91694 3.0002C10.3249 2.98878 10.7309 3.06071 11.11 3.2116C11.4892 3.36248 11.8336 3.58914 12.1222 3.8777C12.4108 4.16627 12.6374 4.51068 12.7883 4.88986C12.9392 5.26904 13.0111 5.67501 12.9997 6.08295C12.9883 6.49089 12.8937 6.8922 12.7219 7.26235C12.55 7.6325 12.3045 7.96369 12.0002 8.23567C11.5885 8.60374 11.5531 9.23591 11.9211 9.64767C12.2892 10.0594 12.9214 10.0948 13.3331 9.72676C13.8402 9.27347 14.2495 8.72148 14.5359 8.10457C14.8223 7.48765 14.9799 6.81879 14.9989 6.1389C15.0179 5.45901 14.898 4.78238 14.6466 4.15041C14.3951 3.51845 14.0173 2.94444 13.5364 2.46349C13.0555 1.98254 12.4814 1.60478 11.8495 1.35331C11.2175 1.10184 10.5409 0.981953 9.86099 1.00098C9.1811 1.02001 8.51223 1.17755 7.89532 1.46397C7.27841 1.75039 6.72642 2.15967 6.27313 2.66676C5.90506 3.07852 5.94047 3.71069 6.35222 4.07876C6.76398 4.44683 7.39615 4.41142 7.76422 3.99967C8.0362 3.69541 8.36739 3.44985 8.73754 3.27799C9.10769 3.10614 9.509 3.01161 9.91694 3.0002ZM10.7071 5.29289C11.0976 5.68342 11.0976 6.31658 10.7071 6.70711L6.70711 10.7071C6.31658 11.0976 5.68342 11.0976 5.29289 10.7071C4.90237 10.3166 4.90237 9.68342 5.29289 9.29289L9.29289 5.29289C9.68342 4.90237 10.3166 4.90237 10.7071 5.29289ZM4.07888 6.3521C4.44695 6.76386 4.41154 7.39603 3.99979 7.7641C3.69553 8.03608 3.44997 8.36727 3.27812 8.73742C3.10626 9.10756 3.01174 9.50888 3.00032 9.91682C2.9889 10.3248 3.06084 10.7307 3.21172 11.1099C3.3626 11.4891 3.58926 11.8335 3.87783 12.1221C4.16639 12.4106 4.5108 12.6373 4.88998 12.7882C5.26916 12.9391 5.67514 13.011 6.08307 12.9996C6.49101 12.9882 6.89232 12.8936 7.26247 12.7218C7.63262 12.5499 7.96381 12.3044 8.23579 12.0001C8.60386 11.5883 9.23603 11.5529 9.64779 11.921C10.0595 12.2891 10.095 12.9213 9.72688 13.333C9.27359 13.8401 8.7216 14.2494 8.10469 14.5358C7.48778 14.8222 6.81891 14.9798 6.13902 14.9988C5.45913 15.0178 4.7825 14.8979 4.15054 14.6465C3.51857 14.395 2.94456 14.0172 2.46361 13.5363C1.98267 13.0553 1.6049 12.4813 1.35343 11.8494C1.10196 11.2174 0.982075 10.5408 1.0011 9.86087C1.02013 9.18097 1.17767 8.51211 1.46409 7.8952C1.75052 7.27829 2.15979 6.7263 2.66688 6.27301C3.07864 5.90494 3.71081 5.94035 4.07888 6.3521Z" />
</svg>
