<svg width="16" height="16" viewBox="0 0 16 16" xmlns="http://www.w3.org/2000/svg">
<path fill-rule="evenodd" clip-rule="evenodd" d="M5.87868 3.87868C6.44129 3.31607 7.20435 3 8 3C8.79565 3 9.55871 3.31607 10.1213 3.87868C10.6839 4.44129 11 5.20435 11 6V6.3335H5V6C5 5.20435 5.31607 4.44129 5.87868 3.87868ZM3 6.3335V6C3 4.67392 3.52678 3.40215 4.46447 2.46447C5.40215 1.52678 6.67392 1 8 1C9.32608 1 10.5979 1.52678 11.5355 2.46447C12.4732 3.40215 13 4.67392 13 6V6.3335H13.3333C13.8856 6.3335 14.3333 6.78121 14.3333 7.3335V14.0002C14.3333 14.5524 13.8856 15.0002 13.3333 15.0002H2.66667C2.11438 15.0002 1.66667 14.5524 1.66667 14.0002V7.3335C1.66667 6.78121 2.11438 6.3335 2.66667 6.3335H3ZM3.66667 8.3335V13.0002H12.3333V8.3335H3.66667ZM8 9C8.55228 9 9 9.44771 9 10V11.3333C9 11.8856 8.55228 12.3333 8 12.3333C7.44772 12.3333 7 11.8856 7 11.3333V10C7 9.44771 7.44772 9 8 9Z" />
</svg>
