<svg width="16" height="16" viewBox="0 0 16 16" xmlns="http://www.w3.org/2000/svg">
    <path fill-rule="evenodd" clip-rule="evenodd" d="M4.33334 2C4.33334 1.44772 4.78105 1 5.33334 1H13.3333C13.8856 1 14.3333 1.44772 14.3333 2V14C14.3333 14.5523 13.8856 15 13.3333 15H5.33334C4.78105 15 4.33334 14.5523 4.33334 14V13C4.33334 12.4477 4.78105 12 5.33334 12C5.88562 12 6.33334 12.4477 6.33334 13H12.3333V3H6.33334C6.33334 3.55228 5.88562 4 5.33334 4C4.78105 4 4.33334 3.55228 4.33334 3V2ZM4.7072 10.7281C4.31668 11.1186 3.68351 11.1186 3.29299 10.7281L1.29299 8.7281C1.09622 8.53134 0.998598 8.27298 1.00011 8.01509C1.00004 8.01007 1 8.00504 1 8C1 7.66155 1.16814 7.36237 1.42545 7.18143L3.29299 5.31389C3.68351 4.92336 4.31668 4.92336 4.7072 5.31389C5.09773 5.70441 5.09773 6.33758 4.7072 6.7281L4.4353 7H8.66667C9.21895 7 9.66667 7.44772 9.66667 8C9.66667 8.55228 9.21895 9 8.66667 9H4.39331L4.7072 9.31389C5.09773 9.70441 5.09773 10.3376 4.7072 10.7281Z" />
</svg>
