<svg width="16" height="16" viewBox="0 0 16 16" xmlns="http://www.w3.org/2000/svg">
<path fill-rule="evenodd" clip-rule="evenodd" d="M2.11283 1.6665C1.82074 1.63353 1.5169 1.72904 1.29289 1.95305C1.09683 2.14912 0.999197 2.40634 1 2.66332C1 2.66438 1 2.66544 1 2.6665V13.3332C1 13.8855 1.44772 14.3332 2 14.3332H14C14.5523 14.3332 15 13.8855 15 13.3332V2.6665C15 2.66547 15 2.66443 15 2.66339C15.0008 2.40639 14.9032 2.14914 14.7071 1.95305C14.4831 1.72904 14.1793 1.63353 13.8872 1.6665H2.11283ZM3 5.07437V12.3332H13V5.07437L8.70711 9.36726C8.31658 9.75779 7.68342 9.75779 7.29289 9.36726L3 5.07437ZM11.5794 3.6665L8 7.24594L4.42056 3.6665H11.5794Z" />
</svg>
