<svg width="16" height="16" viewBox="0 0 16 16" xmlns="http://www.w3.org/2000/svg">
<path fill-rule="evenodd" clip-rule="evenodd" d="M1.66667 3.3335C1.66667 2.78121 2.11439 2.3335 2.66667 2.3335H13.3333C13.8856 2.3335 14.3333 2.78121 14.3333 3.3335C14.3333 3.88578 13.8856 4.3335 13.3333 4.3335H2.66667C2.11439 4.3335 1.66667 3.88578 1.66667 3.3335ZM1.66667 8C1.66667 7.44772 2.11439 7 2.66667 7H13.3333C13.8856 7 14.3333 7.44772 14.3333 8C14.3333 8.55228 13.8856 9 13.3333 9H2.66667C2.11439 9 1.66667 8.55228 1.66667 8ZM2.66667 11.6665C2.11439 11.6665 1.66667 12.1142 1.66667 12.6665C1.66667 13.2188 2.11439 13.6665 2.66667 13.6665H13.3333C13.8856 13.6665 14.3333 13.2188 14.3333 12.6665C14.3333 12.1142 13.8856 11.6665 13.3333 11.6665H2.66667Z" />
</svg>
