<svg width="16" height="16" viewBox="0 0 16 16" xmlns="http://www.w3.org/2000/svg">
<path fill-rule="evenodd" clip-rule="evenodd" d="M7.99998 3C7.02752 3 6.09489 3.38631 5.40725 4.07394C4.71962 4.76158 4.33331 5.69421 4.33331 6.66667V11H11.6666V6.66667C11.6666 5.69421 11.2803 4.76158 10.5927 4.07394C9.90507 3.38631 8.97244 3 7.99998 3ZM2 11H2.33331V6.66667C2.33331 5.16377 2.93034 3.72243 3.99304 2.65973C5.05575 1.59702 6.49709 1 7.99998 1C9.50287 1 10.9442 1.59702 12.0069 2.65973C13.0696 3.72243 13.6666 5.16377 13.6666 6.66667V11H14C14.5523 11 15 11.4477 15 12C15 12.5523 14.5523 13 14 13H12.6666H3.33331H2C1.44772 13 1 12.5523 1 12C1 11.4477 1.44772 11 2 11ZM6.66669 13.6665C6.1144 13.6665 5.66669 14.1142 5.66669 14.6665C5.66669 15.2188 6.1144 15.6665 6.66669 15.6665H9.33335C9.88564 15.6665 10.3334 15.2188 10.3334 14.6665C10.3334 14.1142 9.88564 13.6665 9.33335 13.6665H6.66669Z" />
</svg>
