<svg width="16" height="16" viewBox="0 0 16 16" xmlns="http://www.w3.org/2000/svg">
    <path fill-rule="evenodd" clip-rule="evenodd" d="M0.292893 0.292893C0.683417 -0.0976311 1.31658 -0.0976311 1.70711 0.292893L4.80846 3.39425L12.7071 11.2929L15.7071 14.2929C16.0976 14.6834 16.0976 15.3166 15.7071 15.7071C15.3166 16.0976 14.6834 16.0976 14.2929 15.7071L11.586 13.0002H3.34026H3.32783H2C1.44772 13.0002 1 12.5525 1 12.0002C1 11.4479 1.44772 11.0002 2 11.0002H2.33333V6.6669C2.33333 5.81378 2.52266 5.00286 2.86153 4.27574L0.292893 1.70711C-0.0976311 1.31658 -0.0976311 0.683417 0.292893 0.292893ZM4.89172 6.30593L9.58602 11.0002H4.43528L4.89172 6.30593ZM6.66669 13.6665C6.1144 13.6665 5.66669 14.1142 5.66669 14.6665C5.66669 15.2188 6.1144 15.6665 6.66669 15.6665H9.33335C9.88564 15.6665 10.3334 15.2188 10.3334 14.6665C10.3334 14.1142 9.88564 13.6665 9.33335 13.6665H6.66669ZM6.31439 3.40945C6.87337 3.12009 7.49742 2.9795 8.12648 3.00121C8.75554 3.02292 9.36841 3.2062 9.90611 3.5334C10.4438 3.86061 10.8882 4.32073 11.1966 4.86946C11.5049 5.41819 11.6668 6.03706 11.6667 6.66649V6.66671V9.33338C11.6667 9.88566 12.1144 10.3334 12.6667 10.3334C13.219 10.3334 13.6667 9.88566 13.6667 9.33338V6.66693V6.66671C13.6669 5.69403 13.4166 4.73767 12.9401 3.8897C12.4636 3.04166 11.7768 2.33057 10.9458 1.82488C10.1148 1.3192 9.16764 1.03595 8.19546 1.0024C7.22328 0.968843 6.25884 1.18612 5.39496 1.63331C4.9045 1.88721 4.71272 2.49063 4.96661 2.98109C5.2205 3.47156 5.82392 3.66334 6.31439 3.40945Z" />
</svg>
