<svg width="16" height="16" viewBox="0 0 16 16" xmlns="http://www.w3.org/2000/svg">
<path fill-rule="evenodd" clip-rule="evenodd" d="M10.0405 1.29289C9.64993 0.902369 9.01676 0.902369 8.62624 1.29289C8.37291 1.54622 8.28391 1.90165 8.35924 2.22672L5.5858 5.00016H3.33334C2.78106 5.00016 2.33334 5.44788 2.33334 6.00016V6.66683C2.33334 6.93205 2.4387 7.1864 2.62624 7.37394L4.91896 9.66666L1.95955 12.6261C1.56903 13.0166 1.56903 13.6498 1.95955 14.0403C2.35007 14.4308 2.98324 14.4308 3.37376 14.0403L6.33317 11.0809L8.62624 13.3739C9.01676 13.7645 9.64993 13.7645 10.0405 13.3739L10.7071 12.7073C10.8947 12.5197 11 12.2654 11 12.0002V10.4144L13.7736 7.64083C14.0986 7.71605 14.4539 7.62703 14.7071 7.37377C15.0976 6.98325 15.0976 6.35008 14.7071 5.95956L10.0405 1.29289ZM12.2525 6.33341L9.66676 3.74763L6.70712 6.70727C6.51958 6.89481 6.26523 7.00016 6.00001 7.00016H5.08089L7.02544 8.94471L7.04043 8.9594L7.05512 8.97439L9.00001 10.9193V10.0002C9.00001 9.73495 9.10537 9.48059 9.2929 9.29306L12.2525 6.33341Z" />
</svg>
