<svg width="16" height="16" viewBox="0 0 16 16" xmlns="http://www.w3.org/2000/svg">
<path fill-rule="evenodd" clip-rule="evenodd" d="M11.665 5.27675C11.7019 5.92595 11.5268 6.56959 11.166 7.11088C10.8175 7.63369 10.3139 8.03339 9.72682 8.25438C9.54252 8.35176 9.36406 8.54339 9.23245 8.80646C9.05982 9.16248 8.97948 9.55617 8.99879 9.95138C9.02575 10.503 8.60043 10.972 8.0488 10.999C7.49717 11.026 7.02814 10.6006 7.00118 10.049C6.96549 9.3189 7.11393 8.59157 7.43822 7.92295C7.77519 7.24899 8.28527 6.72055 8.90865 6.42814L9.00158 6.39012C9.2061 6.3182 9.38172 6.18178 9.50187 6.00157C9.62213 5.82112 9.68051 5.60655 9.6666 5.3335C9.6666 5.1025 9.55304 4.86762 9.33204 4.67834C9.08 4.46202 8.71797 4.3335 8.33331 4.3335H7.66665C7.282 4.3335 6.91997 4.46202 6.66724 4.67893C6.44651 4.86802 6.33331 5.10221 6.33331 5.3335C6.33331 5.88578 5.8856 6.3335 5.33331 6.3335C4.78103 6.3335 4.33331 5.88578 4.33331 5.3335C4.33331 4.50371 4.7119 3.72048 5.36538 3.16066C5.98756 2.62667 6.81335 2.3335 7.66665 2.3335H8.33331C9.18662 2.3335 10.0124 2.62667 10.6338 3.15998C11.2876 3.71988 11.6666 4.50388 11.665 5.27675ZM7 12.6732V12.6665C7 12.1142 7.44772 11.6665 8 11.6665C8.55228 11.6665 9 12.1142 9 12.6665V12.6732C9 13.2255 8.55228 13.6732 8 13.6732C7.44772 13.6732 7 13.2255 7 12.6732Z" />
</svg>
