<svg width="16" height="16" viewBox="0 0 16 16" xmlns="http://www.w3.org/2000/svg">
    <path fill-rule="evenodd" clip-rule="evenodd" d="M8.80375 1.72939C7.41149 1.54974 5.99878 1.83284 4.78323 2.53507C4.38017 2.76793 4.0062 3.04258 3.66667 3.35296V3.3335C3.66667 2.78121 3.21895 2.3335 2.66667 2.3335C2.11438 2.3335 1.66667 2.78121 1.66667 3.3335V6.00016C1.66667 6.55245 2.11438 7.00016 2.66667 7.00016H2.97831C2.99252 7.00047 3.00672 7.00047 3.02088 7.00016H5.33334C5.88562 7.00016 6.33333 6.55245 6.33333 6.00016C6.33333 5.44788 5.88562 5.00016 5.33334 5.00016H4.83918C5.1174 4.7157 5.43469 4.46848 5.7837 4.26685C6.61939 3.78407 7.59063 3.58944 8.54781 3.71294C9.50499 3.83645 10.395 4.27124 11.0808 4.95035C11.7665 5.62945 12.21 6.51518 12.3429 7.47111C12.4189 8.01814 12.924 8.39997 13.471 8.32395C14.018 8.24792 14.3998 7.74284 14.3238 7.19582C14.1306 5.80537 13.4855 4.51703 12.4881 3.52924C11.4906 2.54146 10.196 1.90904 8.80375 1.72939ZM2.52902 7.67602C3.07605 7.6 3.58113 7.98183 3.65715 8.52886C3.79 9.48479 4.23346 10.3705 4.91922 11.0496C5.60499 11.7287 6.49501 12.1635 7.45219 12.287C8.40937 12.4105 9.38061 12.2159 10.2163 11.7331C10.5652 11.5315 10.8825 11.2844 11.1606 11H10.6667C10.1144 11 9.66667 10.5523 9.66667 10C9.66667 9.44772 10.1144 9 10.6667 9H12.9714C12.9907 8.99944 13.01 8.99943 13.0294 9H13.3333C13.8856 9 14.3333 9.44772 14.3333 10V12.6667C14.3333 13.219 13.8856 13.6667 13.3333 13.6667C12.781 13.6667 12.3333 13.219 12.3333 12.6667V12.647C11.9938 12.9574 11.6198 13.232 11.2168 13.4649C10.0012 14.1671 8.58851 14.4502 7.19625 14.2706C5.80398 14.0909 4.50941 13.4585 3.51193 12.4707C2.51445 11.4829 1.86942 10.1946 1.67619 8.80415C1.60017 8.25713 1.98199 7.75205 2.52902 7.67602Z" />
</svg>
