<svg width="16" height="16" viewBox="0 0 16 16" xmlns="http://www.w3.org/2000/svg">
<path fill-rule="evenodd" clip-rule="evenodd" d="M5.5583 3.38023C6.37739 3.01243 7.29314 2.90715 8.17858 3.08325L11.6667 7.33319C11.6667 8.42366 11.2656 9.41803 10.6013 10.1794L5.5583 3.38023ZM5.55825 3.38026C5.55827 3.38025 5.55829 3.38024 5.5583 3.38023L4.34764 1.74794C5.63985 1.05718 7.13159 0.835854 8.5687 1.12166C10.0058 1.40747 11.2993 2.18273 12.2289 3.31535C13.1585 4.44797 13.6666 5.86787 13.6667 7.33311L12.6667 7.33315H13.6667C13.6667 8.72093 13.2199 10.0054 12.4631 11.0487L14.7071 13.2927C15.0976 13.6832 15.0976 14.3164 14.7071 14.7069C14.3166 15.0975 13.6834 15.0975 13.2929 14.7069L11.0485 12.4625C10.1442 13.1176 9.07737 13.5255 7.95428 13.6362C6.49609 13.7798 5.0332 13.4134 3.81487 12.5994C2.59654 11.7854 1.69815 10.5741 1.27277 9.17199C0.847386 7.76985 0.921338 6.26359 1.48202 4.90986C2.04271 3.55613 3.05543 2.43869 4.34764 1.74794L5.55825 3.38026ZM10.601 10.1797C10.6011 10.1796 10.6012 10.1795 10.6013 10.1794L10.6331 10.2224C10.633 10.2224 10.6329 10.2225 10.6328 10.2225L10.601 10.1797ZM10.601 10.1797C10.5358 10.2545 10.468 10.327 10.3978 10.3971L10.3976 10.3974L10.3975 10.3974C9.68866 11.1063 8.7559 11.5475 7.75819 11.6458C6.76048 11.7441 5.75956 11.4934 4.92597 10.9364C4.09237 10.3795 3.47768 9.55073 3.18663 8.59137C2.89558 7.63201 2.94618 6.60141 3.3298 5.67517C3.71343 4.74894 4.40635 3.98437 5.29049 3.51175C5.37845 3.46473 5.46776 3.42089 5.55825 3.38026L10.601 10.1797ZM8.17858 3.08325L11.6667 7.33315C11.6666 6.33062 11.319 5.35913 10.6829 4.58419C10.0469 3.80924 9.16186 3.2788 8.17858 3.08325Z" />
</svg>
