<svg width="16" height="16" viewBox="0 0 16 16" xmlns="http://www.w3.org/2000/svg">
<path fill-rule="evenodd" clip-rule="evenodd" d="M2.44721 1.10557C2.13723 0.95058 1.76909 0.967144 1.47427 1.14935C1.17945 1.33156 1 1.65342 1 2V8V14C1 14.3466 1.17945 14.6684 1.47427 14.8507C1.76909 15.0329 2.13723 15.0494 2.44721 14.8944L14.4472 8.89443C14.786 8.72504 15 8.37877 15 8C15 7.62123 14.786 7.27497 14.4472 7.10557L2.44721 1.10557ZM3 9H6C6.55228 9 7 8.55229 7 8C7 7.44772 6.55228 7 6 7H3V3.61804L11.7639 8L3 12.382V9Z" />
</svg>
