<svg width="16" height="16" viewBox="0 0 16 16" xmlns="http://www.w3.org/2000/svg">
<path fill-rule="evenodd" clip-rule="evenodd" d="M8.70712 0.626389C8.31659 0.235865 7.68343 0.235865 7.2929 0.626389L5.5858 2.3335H3.33334C2.78106 2.3335 2.33334 2.78121 2.33334 3.3335V5.58595L0.626237 7.29306C0.235712 7.68358 0.235712 8.31675 0.626237 8.70727L2.33334 10.4144V12.6668C2.33334 13.2191 2.78106 13.6668 3.33334 13.6668H5.5858L7.2929 15.3739C7.68343 15.7645 8.31659 15.7645 8.70712 15.3739L10.4142 13.6668H12.6667C13.219 13.6668 13.6667 13.2191 13.6667 12.6668V10.4144L15.3738 8.70727C15.7643 8.31675 15.7643 7.68358 15.3738 7.29306L13.6667 5.58595V3.3335C13.6667 2.78121 13.219 2.3335 12.6667 2.3335H10.4142L8.70712 0.626389ZM6.70712 4.0406L8.00001 2.74771L9.2929 4.0406C9.48044 4.22814 9.73479 4.3335 10 4.3335H11.6667V6.00016C11.6667 6.26538 11.772 6.51973 11.9596 6.70727L13.2525 8.00016L11.9596 9.29306C11.772 9.48059 11.6667 9.73495 11.6667 10.0002V11.6668H10C9.73479 11.6668 9.48044 11.7722 9.2929 11.9597L8.00001 13.2526L6.70712 11.9597C6.51958 11.7722 6.26523 11.6668 6.00001 11.6668H4.33334V10.0002C4.33334 9.73495 4.22799 9.48059 4.04045 9.29306L2.74756 8.00016L4.04045 6.70727C4.22799 6.51973 4.33334 6.26538 4.33334 6.00016V4.3335H6.00001C6.26523 4.3335 6.51958 4.22814 6.70712 4.0406ZM7 8C7 7.44772 7.44772 7 8 7C8.55229 7 9 7.44772 9 8C9 8.55229 8.55229 9 8 9C7.44772 9 7 8.55229 7 8ZM8 5C6.34315 5 5 6.34315 5 8C5 9.65685 6.34315 11 8 11C9.65685 11 11 9.65685 11 8C11 6.34315 9.65685 5 8 5Z" />
</svg>
