<svg width="16" height="16" viewBox="0 0 16 16" xmlns="http://www.w3.org/2000/svg">
<path fill-rule="evenodd" clip-rule="evenodd" d="M8.89658 1.2236C8.72804 0.882437 8.38049 0.666492 7.99998 0.666504C7.61946 0.666516 7.27193 0.882484 7.10341 1.22365L5.27631 4.9228L1.19012 5.51415C0.813065 5.56871 0.499775 5.83278 0.382175 6.19516C0.264576 6.55754 0.3631 6.95525 0.636258 7.22083L3.59668 10.0991L2.89908 14.164C2.83471 14.5391 2.98885 14.9183 3.2967 15.142C3.60455 15.3658 4.01274 15.3955 4.34968 15.2185L8.00415 13.299L11.6495 15.218C11.9864 15.3954 12.3949 15.3661 12.703 15.1423C13.011 14.9186 13.1653 14.5393 13.1009 14.164L12.4033 10.0996L15.3639 7.22002C15.637 6.95441 15.7354 6.55672 15.6178 6.1944C15.5002 5.83207 15.1869 5.56804 14.8099 5.51348L10.7237 4.92213L8.89658 1.2236ZM6.8366 6.28002L8.00008 3.92445L9.16344 6.27941C9.30925 6.57456 9.59098 6.77904 9.91678 6.82619L12.5139 7.20204L10.6314 9.03299C10.3952 9.26277 10.2873 9.59419 10.3431 9.919L10.7867 12.5036L8.4705 11.2843C8.17921 11.1309 7.83111 11.1308 7.53967 11.2839L5.21286 12.506L5.65693 9.91831C5.71269 9.59344 5.60476 9.26196 5.36843 9.03218L3.48664 7.20263L6.08323 6.82686C6.40906 6.77971 6.69081 6.5752 6.8366 6.28002Z" />
</svg>
