<svg width="16" height="16" viewBox="0 0 16 16" xmlns="http://www.w3.org/2000/svg">
<path fill-rule="evenodd" clip-rule="evenodd" d="M7.99262 2.33316C8.69889 2.32316 9.41706 2.4308 10.0358 2.66283L10.0362 2.66299C10.6269 2.8848 11.2409 3.26516 11.5554 3.87467C11.8086 4.36548 11.616 4.96864 11.1252 5.22186C10.6363 5.47407 10.0359 5.28397 9.78098 4.79745C9.77735 4.79269 9.75682 4.76638 9.70195 4.72537C9.62618 4.66873 9.50602 4.60026 9.33318 4.53535L7.99262 2.33316ZM7.99262 2.33316L9.33312 4.53533C8.98358 4.40433 8.51702 4.3253 8.01542 4.33304L8 4.33316H7.33333C6.97971 4.33316 6.64057 4.47363 6.39052 4.72368C6.14048 4.97373 6 5.31287 6 5.66649C6 6.02011 6.14048 6.35925 6.39052 6.6093C6.64057 6.85935 6.97971 6.99982 7.33333 6.99982L7.35228 7H12.6666C13.2189 7 13.6666 7.44771 13.6666 8C13.6666 8.55228 13.2189 9 12.6666 9H3.33331C2.78103 9 2.33331 8.55228 2.33331 8C2.33331 7.44771 2.78103 7 3.33331 7H4.27836C4.0965 6.58335 4 6.1299 4 5.66649C4 4.78243 4.35119 3.93459 4.97631 3.30947C5.60143 2.68435 6.44928 2.33316 7.33333 2.33316H7.99262ZM11.9898 10.8093C12.0686 10.2627 11.6894 9.75562 11.1428 9.67675C10.5962 9.59788 10.0891 9.97707 10.0102 10.5237C9.96413 10.8434 9.80353 11.1354 9.5583 11.3456C9.31307 11.5558 8.99988 11.6699 8.67692 11.6666V11.6665H8.66667H7.66667L7.65125 11.6666C7.1492 11.6744 6.68203 11.5952 6.33355 11.4643C6.16068 11.3994 6.0405 11.3309 5.96471 11.2743C5.90985 11.2333 5.88931 11.207 5.88568 11.2022C5.63072 10.7157 5.03039 10.5256 4.54151 10.7778C4.0507 11.031 3.85808 11.6342 4.1113 12.125C4.42575 12.7345 5.03977 13.1149 5.63045 13.3367C6.24896 13.5689 6.96802 13.6765 7.67405 13.6665H8.66199C9.46744 13.6734 10.2482 13.3884 10.8599 12.8641C11.473 12.3387 11.8744 11.6085 11.9898 10.8093Z" />
</svg>
