<svg width="16" height="16" viewBox="0 0 16 16" xmlns="http://www.w3.org/2000/svg">
<path fill-rule="evenodd" clip-rule="evenodd" d="M6.92952 3.19749C7.49709 2.9807 8.1171 2.94134 8.70752 3.08463C9.29794 3.22791 9.83095 3.54709 10.236 3.99993C10.6042 4.41156 11.2364 4.44677 11.648 4.07857C12.0597 3.71036 12.0949 3.07818 11.7267 2.66654C11.0516 1.91182 10.1632 1.37985 9.1792 1.14104C8.19517 0.90223 7.16181 0.967825 6.21587 1.32915C5.26993 1.69047 4.45599 2.33049 3.88174 3.16452C3.3075 3.99855 3.00003 4.98727 3 5.99987V5.9999V6.3335H2.66666C2.11438 6.3335 1.66666 6.78121 1.66666 7.3335V14.0002C1.66666 14.5524 2.11438 15.0002 2.66666 15.0002H13.3333C13.8856 15.0002 14.3333 14.5524 14.3333 14.0002V7.3335C14.3333 6.78121 13.8856 6.3335 13.3333 6.3335H5V5.99993V5.9999C5.00002 5.39235 5.18451 4.79912 5.52905 4.29871C5.87359 3.79829 6.36196 3.41428 6.92952 3.19749ZM3.66666 8.3335V13.0002H12.3333V8.3335H3.66666ZM6.33334 10.6665C6.33334 10.1142 6.78105 9.6665 7.33334 9.6665H8.66667C9.21895 9.6665 9.66667 10.1142 9.66667 10.6665C9.66667 11.2188 9.21895 11.6665 8.66667 11.6665H7.33334C6.78105 11.6665 6.33334 11.2188 6.33334 10.6665Z" />
</svg>
