<svg width="16" height="16" viewBox="0 0 16 16" xmlns="http://www.w3.org/2000/svg">
    <path fill-rule="evenodd" clip-rule="evenodd" d="M1.70711 0.292893C1.31658 -0.0976311 0.683417 -0.0976311 0.292893 0.292893C-0.0976311 0.683417 -0.0976311 1.31658 0.292893 1.70711L3.58579 5H3.33334C2.78106 5 2.33334 5.44772 2.33334 6V6.66667C2.33334 6.93188 2.4387 7.18624 2.62624 7.37377L4.91904 9.66658L1.95955 12.6261C1.56903 13.0166 1.56903 13.6498 1.95955 14.0403C2.35007 14.4308 2.98324 14.4308 3.37376 14.0403L6.33325 11.0808L8.62624 13.3738C9.01676 13.7643 9.64993 13.7643 10.0405 13.3738L10.7071 12.7071C10.8091 12.6051 10.8868 12.4833 10.9365 12.3507L14.2929 15.7071C14.6834 16.0976 15.3166 16.0976 15.7071 15.7071C16.0976 15.3166 16.0976 14.6834 15.7071 14.2929L10.7099 9.29566C10.708 9.29381 10.7062 9.29197 10.7044 9.29014L6.70983 5.29562C6.70803 5.2938 6.70621 5.29198 6.70439 5.29018L1.70711 0.292893ZM5.58579 7H5.08089L7.03023 8.94934L7.04043 8.9594L7.05049 8.9696L9.00001 10.9191V10.4142L5.58579 7ZM10.0405 1.29289C9.64993 0.902369 9.01676 0.902369 8.62624 1.29289C8.37291 1.54622 8.28391 1.90164 8.35924 2.2267L6.95955 3.62639C6.56903 4.01691 6.56903 4.65008 6.95955 5.0406C7.35007 5.43113 7.98324 5.43113 8.37376 5.0406L9.66675 3.74762L12.2525 6.3334L10.9595 7.62639C10.569 8.01691 10.569 8.65008 10.9595 9.0406C11.3501 9.43113 11.9832 9.43113 12.3738 9.0406L13.7735 7.64082C14.0985 7.71605 14.4539 7.62704 14.7071 7.37377C15.0976 6.98325 15.0976 6.35008 14.7071 5.95956L10.0405 1.29289Z" />
</svg>
