<svg width="16" height="16" viewBox="0 0 16 16" xmlns="http://www.w3.org/2000/svg">
<path fill-rule="evenodd" clip-rule="evenodd" d="M8.69399 3.07989C8.13218 2.94711 7.54399 2.97936 7.00007 3.17276C6.45615 3.36615 5.97963 3.71247 5.62775 4.17012C5.27588 4.62776 5.06361 5.17726 5.01646 5.75261C4.9693 6.32797 5.08926 6.9047 5.36192 7.41353C5.63458 7.92236 6.04835 8.34165 6.55352 8.62103C7.0587 8.90041 7.63379 9.028 8.20971 8.98848C8.78564 8.94895 9.33791 8.74399 9.80017 8.39821C10.2624 8.05243 10.615 7.58054 10.8156 7.03923C11.0075 6.52136 11.5829 6.25711 12.1008 6.44901C12.6187 6.64091 12.8829 7.2163 12.691 7.73417C12.4087 8.49611 11.9457 9.17555 11.3445 9.7156C11.55 9.80806 11.7518 9.90924 11.9493 10.019C13.1533 10.6873 14.1575 11.6522 14.8575 12.8188C15.1416 13.2924 14.9881 13.9067 14.5145 14.1908C14.0409 14.475 13.4267 14.3214 13.1425 13.8478C12.6265 12.9878 11.8814 12.2687 10.9787 11.7677L10.9783 11.7674C10.075 11.2655 9.04771 11 8 11L7.99913 11C6.9571 10.9991 5.932 11.2635 5.02037 11.7682L5.01943 11.7687C4.12829 12.2609 3.38222 12.9787 2.85608 13.8502C2.57064 14.323 1.95596 14.4749 1.48316 14.1894C1.01036 13.904 0.858471 13.2893 1.14391 12.8165C1.85122 11.6449 2.85414 10.6799 4.05208 10.0182C4.25143 9.90786 4.45488 9.80618 4.66185 9.71331C4.23395 9.32838 3.8736 8.8705 3.59907 8.35817C3.14451 7.50989 2.94453 6.54841 3.02314 5.58924C3.10176 4.63006 3.45563 3.71398 4.04224 2.95104C4.62886 2.1881 5.42327 1.61074 6.33005 1.28833C7.23682 0.965915 8.21741 0.912156 9.154 1.13351C9.69147 1.26054 10.0242 1.79923 9.89718 2.3367C9.77015 2.87418 9.23147 3.20692 8.69399 3.07989ZM13.5 2C13.5 1.44772 13.0523 1 12.5 1C11.9477 1 11.5 1.44772 11.5 2V2.5H11C10.4477 2.5 10 2.94772 10 3.5C10 4.05228 10.4477 4.5 11 4.5H11.5V5C11.5 5.55229 11.9477 6 12.5 6C13.0523 6 13.5 5.55229 13.5 5V4.5H14C14.5523 4.5 15 4.05228 15 3.5C15 2.94772 14.5523 2.5 14 2.5H13.5V2Z" />
</svg>
