<svg width="16" height="16" viewBox="0 0 16 16" xmlns="http://www.w3.org/2000/svg">
    <path fill-rule="evenodd" clip-rule="evenodd" d="M5.40009 2.3335C4.30132 2.3335 3.24756 2.76998 2.47061 3.54693C1.69366 4.32387 1.25718 5.37764 1.25718 6.47641C1.25718 7.57072 1.69013 8.6204 2.46118 9.39643L2.42168 9.41899L2.4201 9.41991C1.49972 9.95251 0.722294 10.7004 0.154499 11.5995C-0.1404 12.0665 -0.000916004 12.6841 0.466045 12.979C0.933007 13.2739 1.55062 13.1344 1.84552 12.6674C2.24041 12.0421 2.78103 11.5219 3.42105 11.1514C4.01694 10.8082 4.6913 10.625 5.37866 10.6193L5.40009 10.6193L5.42203 10.6193C6.10919 10.6249 6.78336 10.8081 7.37898 11.1513C8.01906 11.5219 8.55973 12.0421 8.95465 12.6674C9.24955 13.1344 9.86716 13.2739 10.3341 12.979C10.8011 12.6841 10.9406 12.0665 10.6457 11.5995C10.0779 10.7004 9.30044 9.95251 8.38007 9.41991L8.37869 9.41911L8.339 9.39643C9.11005 8.6204 9.543 7.57072 9.543 6.47641C9.543 5.37764 9.10652 4.32387 8.32957 3.54693C7.55263 2.76998 6.49886 2.3335 5.40009 2.3335ZM5.42204 8.61921C5.98244 8.61348 6.51866 8.38837 6.91536 7.99168C7.31723 7.5898 7.543 7.04474 7.543 6.47641C7.543 5.90807 7.31723 5.36301 6.91536 4.96114C6.51348 4.55927 5.96843 4.3335 5.40009 4.3335C4.83176 4.3335 4.2867 4.55927 3.88482 4.96114C3.48295 5.36301 3.25718 5.90807 3.25718 6.47641C3.25718 7.04474 3.48295 7.5898 3.88482 7.99168C4.28173 8.38858 4.81829 8.61371 5.37901 8.61922L5.39773 8.61914L5.40221 8.61913L5.42204 8.61921ZM9.50001 3.3335C9.50001 2.78121 9.94772 2.3335 10.5 2.3335C11.5988 2.3335 12.6525 2.76998 13.4295 3.54693C14.2064 4.32387 14.6429 5.37764 14.6429 6.47641C14.6429 7.56793 14.2122 8.61505 13.4448 9.39049C13.4561 9.3969 13.4674 9.40335 13.4786 9.40983L13.48 9.41062C14.4004 9.9432 15.1778 10.6911 15.7456 11.5903C16.0405 12.0572 15.901 12.6748 15.434 12.9697C14.9671 13.2646 14.3494 13.1251 14.0546 12.6581C13.6597 12.0328 13.119 11.5126 12.479 11.1421C11.9322 10.827 11.3191 10.6467 10.6906 10.6149C10.6273 10.6179 10.5637 10.6193 10.5 10.6193C9.94772 10.6193 9.50001 10.1716 9.50001 9.61932C9.50001 9.61776 9.50001 9.61621 9.50002 9.61466C9.50001 9.61235 9.5 9.61005 9.50001 9.60774C9.50118 9.05546 9.94985 8.60869 10.5021 8.60987C10.5581 8.60998 10.6141 8.61089 10.6699 8.61258C11.1761 8.57233 11.6536 8.3533 12.0153 7.99168C12.4171 7.5898 12.6429 7.04474 12.6429 6.47641C12.6429 5.90807 12.4171 5.36301 12.0153 4.96114C11.6134 4.55927 11.0683 4.3335 10.5 4.3335C9.94772 4.3335 9.50001 3.88578 9.50001 3.3335Z" />
</svg>
