<svg width="16" height="16" viewBox="0 0 16 16" xmlns="http://www.w3.org/2000/svg">
<path fill-rule="evenodd" clip-rule="evenodd" d="M8.00003 1C6.67394 1 5.40217 1.52678 4.46449 2.46447C3.52681 3.40215 3.00003 4.67392 3.00003 6C3.00003 7.32608 3.52681 8.59785 4.46449 9.53553C4.52658 9.59762 4.59014 9.65791 4.65507 9.71636C4.45045 9.80841 4.24928 9.90907 4.05211 10.0182C2.85417 10.6799 1.85126 11.6449 1.14394 12.8165C0.858502 13.2893 1.01039 13.904 1.48319 14.1894C1.95599 14.4749 2.57067 14.323 2.85611 13.8502C3.38225 12.9787 4.12832 12.2609 5.01946 11.7687L5.0204 11.7682C5.93203 11.2635 6.95713 10.9991 7.99916 11L8.00003 11C9.04774 11 10.075 11.2655 10.9783 11.7674L10.9787 11.7677C11.8814 12.2687 12.6265 12.9878 13.1425 13.8478C13.4267 14.3214 14.0409 14.475 14.5145 14.1908C14.9881 13.9067 15.1417 13.2924 14.8575 12.8188C14.1575 11.6522 13.1533 10.6873 11.9493 10.019C11.7521 9.9094 11.5506 9.80835 11.3454 9.71599C11.4102 9.65766 11.4736 9.59749 11.5356 9.53553C12.4732 8.59785 13 7.32608 13 6C13 4.67392 12.4732 3.40215 11.5356 2.46447C10.5979 1.52678 9.32611 1 8.00003 1ZM10.1213 8.12132C9.55874 8.68393 8.79568 9 8.00003 9C7.20438 9 6.44132 8.68393 5.87871 8.12132C5.3161 7.55871 5.00003 6.79565 5.00003 6C5.00003 5.20435 5.3161 4.44129 5.87871 3.87868C6.44132 3.31607 7.20438 3 8.00003 3C8.79568 3 9.55874 3.31607 10.1213 3.87868C10.684 4.44129 11 5.20435 11 6C11 6.79565 10.684 7.55871 10.1213 8.12132Z" />
</svg>
