<svg width="16" height="16" viewBox="0 0 16 16" xmlns="http://www.w3.org/2000/svg">
    <path fill-rule="evenodd" clip-rule="evenodd" d="M5.55831 3.38023C6.37739 3.01243 7.29314 2.90715 8.17858 3.08325L11.6667 7.33319C11.6667 8.42366 11.2656 9.41803 10.6013 10.1794L9.23212 8.3335H9.33333C9.88561 8.3335 10.3333 7.88578 10.3333 7.3335C10.3333 6.78121 9.88561 6.3335 9.33333 6.3335H8.33333V5.3335C8.33333 4.78121 7.88561 4.3335 7.33333 4.3335C7.01479 4.3335 6.73103 4.48244 6.54791 4.71447L5.55831 3.38023ZM5.55825 3.38026L5.55831 3.38023L4.34764 1.74794C5.63985 1.05718 7.13159 0.835854 8.5687 1.12166C10.0058 1.40747 11.2993 2.18273 12.2289 3.31535C13.1585 4.44797 13.6666 5.86787 13.6667 7.33311L12.6667 7.33315H13.6667C13.6667 8.72094 13.2199 10.0054 12.4631 11.0487L14.7071 13.2927C15.0976 13.6832 15.0976 14.3164 14.7071 14.7069C14.3166 15.0975 13.6834 15.0975 13.2929 14.7069L11.0485 12.4626C10.1442 13.1176 9.07737 13.5255 7.95428 13.6362C6.49609 13.7798 5.03321 13.4134 3.81487 12.5994C2.59654 11.7854 1.69815 10.5741 1.27277 9.17199C0.847387 7.76985 0.921339 6.26359 1.48202 4.90986C2.04271 3.55613 3.05543 2.43869 4.34764 1.74794L5.55825 3.38026ZM6.33333 6.3335V5.3335C6.33333 5.09979 6.4135 4.88481 6.54784 4.71456L5.55825 3.38026C5.46776 3.42089 5.37845 3.46473 5.29049 3.51175C4.40635 3.98437 3.71343 4.74894 3.32981 5.67517C2.94618 6.60141 2.89558 7.63201 3.18663 8.59137C3.47768 9.55073 4.09237 10.3795 4.92597 10.9364C5.75956 11.4934 6.76049 11.7441 7.75819 11.6458C8.7559 11.5475 9.68866 11.1063 10.3975 10.3974L10.3976 10.3974L10.3978 10.3971C10.468 10.327 10.5358 10.2545 10.601 10.1797L10.6328 10.2225L10.6331 10.2224L10.6013 10.1794L10.601 10.1797L9.23182 8.3335H8.33333V9.3335C8.33333 9.88578 7.88561 10.3335 7.33333 10.3335C6.78104 10.3335 6.33333 9.88578 6.33333 9.3335V8.3335H5.33333C4.78104 8.3335 4.33333 7.88578 4.33333 7.3335C4.33333 6.78121 4.78104 6.3335 5.33333 6.3335H6.33333ZM8.17858 3.08325L11.6667 7.33315C11.6666 6.33062 11.319 5.35913 10.683 4.58419C10.0469 3.80924 9.16186 3.2788 8.17858 3.08325Z" />
</svg>
